<?xml version="1.0" encoding="utf-8" standalone="no"?>
<!DOCTYPE svg PUBLIC "-//W3C//DTD SVG 1.1//EN"
  "http://www.w3.org/Graphics/SVG/1.1/DTD/svg11.dtd">
<!-- Created with matplotlib (https://matplotlib.org/) -->
<svg height="345.6pt" version="1.1" viewBox="0 0 460.8 345.6" width="460.8pt" xmlns="http://www.w3.org/2000/svg" xmlns:xlink="http://www.w3.org/1999/xlink">
 <defs>
  <style type="text/css">
*{stroke-linecap:butt;stroke-linejoin:round;}
  </style>
 </defs>
 <g id="figure_1">
  <g id="patch_1">
   <path d="M 0 345.6 
L 460.8 345.6 
L 460.8 0 
L 0 0 
z
" style="fill:#ffffff;"/>
  </g>
  <g id="axes_1">
   <g id="patch_2">
    <path d="M 40.12 124.576 
L 195.68 124.576 
L 195.68 10.8 
L 40.12 10.8 
z
" style="fill:#ffffff;"/>
   </g>
   <g id="patch_3">
    <path clip-path="url(#p935fe311d5)" d="M 47.190909 721.9 
L 55.874482 721.9 
L 55.874482 94.743933 
L 47.190909 94.743933 
z
" style="fill:#fa7f6f;"/>
   </g>
   <g id="patch_4">
    <path clip-path="url(#p935fe311d5)" d="M 72.001116 721.9 
L 80.684689 721.9 
L 80.684689 89.461882 
L 72.001116 89.461882 
z
" style="fill:#fa7f6f;"/>
   </g>
   <g id="patch_5">
    <path clip-path="url(#p935fe311d5)" d="M 96.811324 721.9 
L 105.494896 721.9 
L 105.494896 62.863898 
L 96.811324 62.863898 
z
" style="fill:#fa7f6f;"/>
   </g>
   <g id="patch_6">
    <path clip-path="url(#p935fe311d5)" d="M 121.621531 721.9 
L 130.305104 721.9 
L 130.305104 33.5552 
L 121.621531 33.5552 
z
" style="fill:#fa7f6f;"/>
   </g>
   <g id="patch_7">
    <path clip-path="url(#p935fe311d5)" d="M 146.431738 721.9 
L 155.115311 721.9 
L 155.115311 48.94056 
L 146.431738 48.94056 
z
" style="fill:#fa7f6f;"/>
   </g>
   <g id="patch_8">
    <path clip-path="url(#p935fe311d5)" d="M 171.241946 721.9 
L 179.925518 721.9 
L 179.925518 56.412798 
L 171.241946 56.412798 
z
" style="fill:#fa7f6f;"/>
   </g>
   <g id="matplotlib.axis_1">
    <g id="xtick_1">
     <g id="line2d_1">
      <defs>
       <path d="M 0 0 
L 0 3.5 
" id="m2d400e1005" style="stroke:#000000;stroke-width:0.8;"/>
      </defs>
      <g>
       <use style="stroke:#000000;stroke-width:0.8;" x="55.874482" xlink:href="#m2d400e1005" y="124.576"/>
      </g>
     </g>
     <g id="text_1">
      <!-- 10 -->
      <defs>
       <path d="M 12.40625 8.296875 
L 28.515625 8.296875 
L 28.515625 63.921875 
L 10.984375 60.40625 
L 10.984375 69.390625 
L 28.421875 72.90625 
L 38.28125 72.90625 
L 38.28125 8.296875 
L 54.390625 8.296875 
L 54.390625 0 
L 12.40625 0 
z
" id="DejaVuSans-49"/>
       <path d="M 31.78125 66.40625 
Q 24.171875 66.40625 20.328125 58.90625 
Q 16.5 51.421875 16.5 36.375 
Q 16.5 21.390625 20.328125 13.890625 
Q 24.171875 6.390625 31.78125 6.390625 
Q 39.453125 6.390625 43.28125 13.890625 
Q 47.125 21.390625 47.125 36.375 
Q 47.125 51.421875 43.28125 58.90625 
Q 39.453125 66.40625 31.78125 66.40625 
z
M 31.78125 74.21875 
Q 44.046875 74.21875 50.515625 64.515625 
Q 56.984375 54.828125 56.984375 36.375 
Q 56.984375 17.96875 50.515625 8.265625 
Q 44.046875 -1.421875 31.78125 -1.421875 
Q 19.53125 -1.421875 13.0625 8.265625 
Q 6.59375 17.96875 6.59375 36.375 
Q 6.59375 54.828125 13.0625 64.515625 
Q 19.53125 74.21875 31.78125 74.21875 
z
" id="DejaVuSans-48"/>
      </defs>
      <g transform="translate(49.511982 139.174437)scale(0.1 -0.1)">
       <use xlink:href="#DejaVuSans-49"/>
       <use x="63.623047" xlink:href="#DejaVuSans-48"/>
      </g>
     </g>
    </g>
    <g id="xtick_2">
     <g id="line2d_2">
      <g>
       <use style="stroke:#000000;stroke-width:0.8;" x="80.684689" xlink:href="#m2d400e1005" y="124.576"/>
      </g>
     </g>
     <g id="text_2">
      <!-- 20 -->
      <defs>
       <path d="M 19.1875 8.296875 
L 53.609375 8.296875 
L 53.609375 0 
L 7.328125 0 
L 7.328125 8.296875 
Q 12.9375 14.109375 22.625 23.890625 
Q 32.328125 33.6875 34.8125 36.53125 
Q 39.546875 41.84375 41.421875 45.53125 
Q 43.3125 49.21875 43.3125 52.78125 
Q 43.3125 58.59375 39.234375 62.25 
Q 35.15625 65.921875 28.609375 65.921875 
Q 23.96875 65.921875 18.8125 64.3125 
Q 13.671875 62.703125 7.8125 59.421875 
L 7.8125 69.390625 
Q 13.765625 71.78125 18.9375 73 
Q 24.125 74.21875 28.421875 74.21875 
Q 39.75 74.21875 46.484375 68.546875 
Q 53.21875 62.890625 53.21875 53.421875 
Q 53.21875 48.921875 51.53125 44.890625 
Q 49.859375 40.875 45.40625 35.40625 
Q 44.1875 33.984375 37.640625 27.21875 
Q 31.109375 20.453125 19.1875 8.296875 
z
" id="DejaVuSans-50"/>
      </defs>
      <g transform="translate(74.322189 139.174437)scale(0.1 -0.1)">
       <use xlink:href="#DejaVuSans-50"/>
       <use x="63.623047" xlink:href="#DejaVuSans-48"/>
      </g>
     </g>
    </g>
    <g id="xtick_3">
     <g id="line2d_3">
      <g>
       <use style="stroke:#000000;stroke-width:0.8;" x="105.494896" xlink:href="#m2d400e1005" y="124.576"/>
      </g>
     </g>
     <g id="text_3">
      <!-- 30 -->
      <defs>
       <path d="M 40.578125 39.3125 
Q 47.65625 37.796875 51.625 33 
Q 55.609375 28.21875 55.609375 21.1875 
Q 55.609375 10.40625 48.1875 4.484375 
Q 40.765625 -1.421875 27.09375 -1.421875 
Q 22.515625 -1.421875 17.65625 -0.515625 
Q 12.796875 0.390625 7.625 2.203125 
L 7.625 11.71875 
Q 11.71875 9.328125 16.59375 8.109375 
Q 21.484375 6.890625 26.8125 6.890625 
Q 36.078125 6.890625 40.9375 10.546875 
Q 45.796875 14.203125 45.796875 21.1875 
Q 45.796875 27.640625 41.28125 31.265625 
Q 36.765625 34.90625 28.71875 34.90625 
L 20.21875 34.90625 
L 20.21875 43.015625 
L 29.109375 43.015625 
Q 36.375 43.015625 40.234375 45.921875 
Q 44.09375 48.828125 44.09375 54.296875 
Q 44.09375 59.90625 40.109375 62.90625 
Q 36.140625 65.921875 28.71875 65.921875 
Q 24.65625 65.921875 20.015625 65.03125 
Q 15.375 64.15625 9.8125 62.3125 
L 9.8125 71.09375 
Q 15.4375 72.65625 20.34375 73.4375 
Q 25.25 74.21875 29.59375 74.21875 
Q 40.828125 74.21875 47.359375 69.109375 
Q 53.90625 64.015625 53.90625 55.328125 
Q 53.90625 49.265625 50.4375 45.09375 
Q 46.96875 40.921875 40.578125 39.3125 
z
" id="DejaVuSans-51"/>
      </defs>
      <g transform="translate(99.132396 139.174437)scale(0.1 -0.1)">
       <use xlink:href="#DejaVuSans-51"/>
       <use x="63.623047" xlink:href="#DejaVuSans-48"/>
      </g>
     </g>
    </g>
    <g id="xtick_4">
     <g id="line2d_4">
      <g>
       <use style="stroke:#000000;stroke-width:0.8;" x="130.305104" xlink:href="#m2d400e1005" y="124.576"/>
      </g>
     </g>
     <g id="text_4">
      <!-- 40 -->
      <defs>
       <path d="M 37.796875 64.3125 
L 12.890625 25.390625 
L 37.796875 25.390625 
z
M 35.203125 72.90625 
L 47.609375 72.90625 
L 47.609375 25.390625 
L 58.015625 25.390625 
L 58.015625 17.1875 
L 47.609375 17.1875 
L 47.609375 0 
L 37.796875 0 
L 37.796875 17.1875 
L 4.890625 17.1875 
L 4.890625 26.703125 
z
" id="DejaVuSans-52"/>
      </defs>
      <g transform="translate(123.942604 139.174437)scale(0.1 -0.1)">
       <use xlink:href="#DejaVuSans-52"/>
       <use x="63.623047" xlink:href="#DejaVuSans-48"/>
      </g>
     </g>
    </g>
    <g id="xtick_5">
     <g id="line2d_5">
      <g>
       <use style="stroke:#000000;stroke-width:0.8;" x="155.115311" xlink:href="#m2d400e1005" y="124.576"/>
      </g>
     </g>
     <g id="text_5">
      <!-- 50 -->
      <defs>
       <path d="M 10.796875 72.90625 
L 49.515625 72.90625 
L 49.515625 64.59375 
L 19.828125 64.59375 
L 19.828125 46.734375 
Q 21.96875 47.46875 24.109375 47.828125 
Q 26.265625 48.1875 28.421875 48.1875 
Q 40.625 48.1875 47.75 41.5 
Q 54.890625 34.8125 54.890625 23.390625 
Q 54.890625 11.625 47.5625 5.09375 
Q 40.234375 -1.421875 26.90625 -1.421875 
Q 22.3125 -1.421875 17.546875 -0.640625 
Q 12.796875 0.140625 7.71875 1.703125 
L 7.71875 11.625 
Q 12.109375 9.234375 16.796875 8.0625 
Q 21.484375 6.890625 26.703125 6.890625 
Q 35.15625 6.890625 40.078125 11.328125 
Q 45.015625 15.765625 45.015625 23.390625 
Q 45.015625 31 40.078125 35.4375 
Q 35.15625 39.890625 26.703125 39.890625 
Q 22.75 39.890625 18.8125 39.015625 
Q 14.890625 38.140625 10.796875 36.28125 
z
" id="DejaVuSans-53"/>
      </defs>
      <g transform="translate(148.752811 139.174437)scale(0.1 -0.1)">
       <use xlink:href="#DejaVuSans-53"/>
       <use x="63.623047" xlink:href="#DejaVuSans-48"/>
      </g>
     </g>
    </g>
    <g id="xtick_6">
     <g id="line2d_6">
      <g>
       <use style="stroke:#000000;stroke-width:0.8;" x="179.925518" xlink:href="#m2d400e1005" y="124.576"/>
      </g>
     </g>
     <g id="text_6">
      <!-- 60 -->
      <defs>
       <path d="M 33.015625 40.375 
Q 26.375 40.375 22.484375 35.828125 
Q 18.609375 31.296875 18.609375 23.390625 
Q 18.609375 15.53125 22.484375 10.953125 
Q 26.375 6.390625 33.015625 6.390625 
Q 39.65625 6.390625 43.53125 10.953125 
Q 47.40625 15.53125 47.40625 23.390625 
Q 47.40625 31.296875 43.53125 35.828125 
Q 39.65625 40.375 33.015625 40.375 
z
M 52.59375 71.296875 
L 52.59375 62.3125 
Q 48.875 64.0625 45.09375 64.984375 
Q 41.3125 65.921875 37.59375 65.921875 
Q 27.828125 65.921875 22.671875 59.328125 
Q 17.53125 52.734375 16.796875 39.40625 
Q 19.671875 43.65625 24.015625 45.921875 
Q 28.375 48.1875 33.59375 48.1875 
Q 44.578125 48.1875 50.953125 41.515625 
Q 57.328125 34.859375 57.328125 23.390625 
Q 57.328125 12.15625 50.6875 5.359375 
Q 44.046875 -1.421875 33.015625 -1.421875 
Q 20.359375 -1.421875 13.671875 8.265625 
Q 6.984375 17.96875 6.984375 36.375 
Q 6.984375 53.65625 15.1875 63.9375 
Q 23.390625 74.21875 37.203125 74.21875 
Q 40.921875 74.21875 44.703125 73.484375 
Q 48.484375 72.75 52.59375 71.296875 
z
" id="DejaVuSans-54"/>
      </defs>
      <g transform="translate(173.563018 139.174437)scale(0.1 -0.1)">
       <use xlink:href="#DejaVuSans-54"/>
       <use x="63.623047" xlink:href="#DejaVuSans-48"/>
      </g>
     </g>
    </g>
    <g id="text_7">
     <!-- (c) Sub-distribution Analysis  -->
     <defs>
      <path d="M 31 75.875 
Q 24.46875 64.65625 21.28125 53.65625 
Q 18.109375 42.671875 18.109375 31.390625 
Q 18.109375 20.125 21.3125 9.0625 
Q 24.515625 -2 31 -13.1875 
L 23.1875 -13.1875 
Q 15.875 -1.703125 12.234375 9.375 
Q 8.59375 20.453125 8.59375 31.390625 
Q 8.59375 42.28125 12.203125 53.3125 
Q 15.828125 64.359375 23.1875 75.875 
z
" id="DejaVuSans-40"/>
      <path d="M 48.78125 52.59375 
L 48.78125 44.1875 
Q 44.96875 46.296875 41.140625 47.34375 
Q 37.3125 48.390625 33.40625 48.390625 
Q 24.65625 48.390625 19.8125 42.84375 
Q 14.984375 37.3125 14.984375 27.296875 
Q 14.984375 17.28125 19.8125 11.734375 
Q 24.65625 6.203125 33.40625 6.203125 
Q 37.3125 6.203125 41.140625 7.25 
Q 44.96875 8.296875 48.78125 10.40625 
L 48.78125 2.09375 
Q 45.015625 0.34375 40.984375 -0.53125 
Q 36.96875 -1.421875 32.421875 -1.421875 
Q 20.0625 -1.421875 12.78125 6.34375 
Q 5.515625 14.109375 5.515625 27.296875 
Q 5.515625 40.671875 12.859375 48.328125 
Q 20.21875 56 33.015625 56 
Q 37.15625 56 41.109375 55.140625 
Q 45.0625 54.296875 48.78125 52.59375 
z
" id="DejaVuSans-99"/>
      <path d="M 8.015625 75.875 
L 15.828125 75.875 
Q 23.140625 64.359375 26.78125 53.3125 
Q 30.421875 42.28125 30.421875 31.390625 
Q 30.421875 20.453125 26.78125 9.375 
Q 23.140625 -1.703125 15.828125 -13.1875 
L 8.015625 -13.1875 
Q 14.5 -2 17.703125 9.0625 
Q 20.90625 20.125 20.90625 31.390625 
Q 20.90625 42.671875 17.703125 53.65625 
Q 14.5 64.65625 8.015625 75.875 
z
" id="DejaVuSans-41"/>
      <path id="DejaVuSans-32"/>
      <path d="M 53.515625 70.515625 
L 53.515625 60.890625 
Q 47.90625 63.578125 42.921875 64.890625 
Q 37.9375 66.21875 33.296875 66.21875 
Q 25.25 66.21875 20.875 63.09375 
Q 16.5 59.96875 16.5 54.203125 
Q 16.5 49.359375 19.40625 46.890625 
Q 22.3125 44.4375 30.421875 42.921875 
L 36.375 41.703125 
Q 47.40625 39.59375 52.65625 34.296875 
Q 57.90625 29 57.90625 20.125 
Q 57.90625 9.515625 50.796875 4.046875 
Q 43.703125 -1.421875 29.984375 -1.421875 
Q 24.8125 -1.421875 18.96875 -0.25 
Q 13.140625 0.921875 6.890625 3.21875 
L 6.890625 13.375 
Q 12.890625 10.015625 18.65625 8.296875 
Q 24.421875 6.59375 29.984375 6.59375 
Q 38.421875 6.59375 43.015625 9.90625 
Q 47.609375 13.234375 47.609375 19.390625 
Q 47.609375 24.75 44.3125 27.78125 
Q 41.015625 30.8125 33.5 32.328125 
L 27.484375 33.5 
Q 16.453125 35.6875 11.515625 40.375 
Q 6.59375 45.0625 6.59375 53.421875 
Q 6.59375 63.09375 13.40625 68.65625 
Q 20.21875 74.21875 32.171875 74.21875 
Q 37.3125 74.21875 42.625 73.28125 
Q 47.953125 72.359375 53.515625 70.515625 
z
" id="DejaVuSans-83"/>
      <path d="M 8.5 21.578125 
L 8.5 54.6875 
L 17.484375 54.6875 
L 17.484375 21.921875 
Q 17.484375 14.15625 20.5 10.265625 
Q 23.53125 6.390625 29.59375 6.390625 
Q 36.859375 6.390625 41.078125 11.03125 
Q 45.3125 15.671875 45.3125 23.6875 
L 45.3125 54.6875 
L 54.296875 54.6875 
L 54.296875 0 
L 45.3125 0 
L 45.3125 8.40625 
Q 42.046875 3.421875 37.71875 1 
Q 33.40625 -1.421875 27.6875 -1.421875 
Q 18.265625 -1.421875 13.375 4.4375 
Q 8.5 10.296875 8.5 21.578125 
z
M 31.109375 56 
z
" id="DejaVuSans-117"/>
      <path d="M 48.6875 27.296875 
Q 48.6875 37.203125 44.609375 42.84375 
Q 40.53125 48.484375 33.40625 48.484375 
Q 26.265625 48.484375 22.1875 42.84375 
Q 18.109375 37.203125 18.109375 27.296875 
Q 18.109375 17.390625 22.1875 11.75 
Q 26.265625 6.109375 33.40625 6.109375 
Q 40.53125 6.109375 44.609375 11.75 
Q 48.6875 17.390625 48.6875 27.296875 
z
M 18.109375 46.390625 
Q 20.953125 51.265625 25.265625 53.625 
Q 29.59375 56 35.59375 56 
Q 45.5625 56 51.78125 48.09375 
Q 58.015625 40.1875 58.015625 27.296875 
Q 58.015625 14.40625 51.78125 6.484375 
Q 45.5625 -1.421875 35.59375 -1.421875 
Q 29.59375 -1.421875 25.265625 0.953125 
Q 20.953125 3.328125 18.109375 8.203125 
L 18.109375 0 
L 9.078125 0 
L 9.078125 75.984375 
L 18.109375 75.984375 
z
" id="DejaVuSans-98"/>
      <path d="M 4.890625 31.390625 
L 31.203125 31.390625 
L 31.203125 23.390625 
L 4.890625 23.390625 
z
" id="DejaVuSans-45"/>
      <path d="M 45.40625 46.390625 
L 45.40625 75.984375 
L 54.390625 75.984375 
L 54.390625 0 
L 45.40625 0 
L 45.40625 8.203125 
Q 42.578125 3.328125 38.25 0.953125 
Q 33.9375 -1.421875 27.875 -1.421875 
Q 17.96875 -1.421875 11.734375 6.484375 
Q 5.515625 14.40625 5.515625 27.296875 
Q 5.515625 40.1875 11.734375 48.09375 
Q 17.96875 56 27.875 56 
Q 33.9375 56 38.25 53.625 
Q 42.578125 51.265625 45.40625 46.390625 
z
M 14.796875 27.296875 
Q 14.796875 17.390625 18.875 11.75 
Q 22.953125 6.109375 30.078125 6.109375 
Q 37.203125 6.109375 41.296875 11.75 
Q 45.40625 17.390625 45.40625 27.296875 
Q 45.40625 37.203125 41.296875 42.84375 
Q 37.203125 48.484375 30.078125 48.484375 
Q 22.953125 48.484375 18.875 42.84375 
Q 14.796875 37.203125 14.796875 27.296875 
z
" id="DejaVuSans-100"/>
      <path d="M 9.421875 54.6875 
L 18.40625 54.6875 
L 18.40625 0 
L 9.421875 0 
z
M 9.421875 75.984375 
L 18.40625 75.984375 
L 18.40625 64.59375 
L 9.421875 64.59375 
z
" id="DejaVuSans-105"/>
      <path d="M 44.28125 53.078125 
L 44.28125 44.578125 
Q 40.484375 46.53125 36.375 47.5 
Q 32.28125 48.484375 27.875 48.484375 
Q 21.1875 48.484375 17.84375 46.4375 
Q 14.5 44.390625 14.5 40.28125 
Q 14.5 37.15625 16.890625 35.375 
Q 19.28125 33.59375 26.515625 31.984375 
L 29.59375 31.296875 
Q 39.15625 29.25 43.1875 25.515625 
Q 47.21875 21.78125 47.21875 15.09375 
Q 47.21875 7.46875 41.1875 3.015625 
Q 35.15625 -1.421875 24.609375 -1.421875 
Q 20.21875 -1.421875 15.453125 -0.5625 
Q 10.6875 0.296875 5.421875 2 
L 5.421875 11.28125 
Q 10.40625 8.6875 15.234375 7.390625 
Q 20.0625 6.109375 24.8125 6.109375 
Q 31.15625 6.109375 34.5625 8.28125 
Q 37.984375 10.453125 37.984375 14.40625 
Q 37.984375 18.0625 35.515625 20.015625 
Q 33.0625 21.96875 24.703125 23.78125 
L 21.578125 24.515625 
Q 13.234375 26.265625 9.515625 29.90625 
Q 5.8125 33.546875 5.8125 39.890625 
Q 5.8125 47.609375 11.28125 51.796875 
Q 16.75 56 26.8125 56 
Q 31.78125 56 36.171875 55.265625 
Q 40.578125 54.546875 44.28125 53.078125 
z
" id="DejaVuSans-115"/>
      <path d="M 18.3125 70.21875 
L 18.3125 54.6875 
L 36.8125 54.6875 
L 36.8125 47.703125 
L 18.3125 47.703125 
L 18.3125 18.015625 
Q 18.3125 11.328125 20.140625 9.421875 
Q 21.96875 7.515625 27.59375 7.515625 
L 36.8125 7.515625 
L 36.8125 0 
L 27.59375 0 
Q 17.1875 0 13.234375 3.875 
Q 9.28125 7.765625 9.28125 18.015625 
L 9.28125 47.703125 
L 2.6875 47.703125 
L 2.6875 54.6875 
L 9.28125 54.6875 
L 9.28125 70.21875 
z
" id="DejaVuSans-116"/>
      <path d="M 41.109375 46.296875 
Q 39.59375 47.171875 37.8125 47.578125 
Q 36.03125 48 33.890625 48 
Q 26.265625 48 22.1875 43.046875 
Q 18.109375 38.09375 18.109375 28.8125 
L 18.109375 0 
L 9.078125 0 
L 9.078125 54.6875 
L 18.109375 54.6875 
L 18.109375 46.1875 
Q 20.953125 51.171875 25.484375 53.578125 
Q 30.03125 56 36.53125 56 
Q 37.453125 56 38.578125 55.875 
Q 39.703125 55.765625 41.0625 55.515625 
z
" id="DejaVuSans-114"/>
      <path d="M 30.609375 48.390625 
Q 23.390625 48.390625 19.1875 42.75 
Q 14.984375 37.109375 14.984375 27.296875 
Q 14.984375 17.484375 19.15625 11.84375 
Q 23.34375 6.203125 30.609375 6.203125 
Q 37.796875 6.203125 41.984375 11.859375 
Q 46.1875 17.53125 46.1875 27.296875 
Q 46.1875 37.015625 41.984375 42.703125 
Q 37.796875 48.390625 30.609375 48.390625 
z
M 30.609375 56 
Q 42.328125 56 49.015625 48.375 
Q 55.71875 40.765625 55.71875 27.296875 
Q 55.71875 13.875 49.015625 6.21875 
Q 42.328125 -1.421875 30.609375 -1.421875 
Q 18.84375 -1.421875 12.171875 6.21875 
Q 5.515625 13.875 5.515625 27.296875 
Q 5.515625 40.765625 12.171875 48.375 
Q 18.84375 56 30.609375 56 
z
" id="DejaVuSans-111"/>
      <path d="M 54.890625 33.015625 
L 54.890625 0 
L 45.90625 0 
L 45.90625 32.71875 
Q 45.90625 40.484375 42.875 44.328125 
Q 39.84375 48.1875 33.796875 48.1875 
Q 26.515625 48.1875 22.3125 43.546875 
Q 18.109375 38.921875 18.109375 30.90625 
L 18.109375 0 
L 9.078125 0 
L 9.078125 54.6875 
L 18.109375 54.6875 
L 18.109375 46.1875 
Q 21.34375 51.125 25.703125 53.5625 
Q 30.078125 56 35.796875 56 
Q 45.21875 56 50.046875 50.171875 
Q 54.890625 44.34375 54.890625 33.015625 
z
" id="DejaVuSans-110"/>
      <path d="M 34.1875 63.1875 
L 20.796875 26.90625 
L 47.609375 26.90625 
z
M 28.609375 72.90625 
L 39.796875 72.90625 
L 67.578125 0 
L 57.328125 0 
L 50.6875 18.703125 
L 17.828125 18.703125 
L 11.1875 0 
L 0.78125 0 
z
" id="DejaVuSans-65"/>
      <path d="M 34.28125 27.484375 
Q 23.390625 27.484375 19.1875 25 
Q 14.984375 22.515625 14.984375 16.5 
Q 14.984375 11.71875 18.140625 8.90625 
Q 21.296875 6.109375 26.703125 6.109375 
Q 34.1875 6.109375 38.703125 11.40625 
Q 43.21875 16.703125 43.21875 25.484375 
L 43.21875 27.484375 
z
M 52.203125 31.203125 
L 52.203125 0 
L 43.21875 0 
L 43.21875 8.296875 
Q 40.140625 3.328125 35.546875 0.953125 
Q 30.953125 -1.421875 24.3125 -1.421875 
Q 15.921875 -1.421875 10.953125 3.296875 
Q 6 8.015625 6 15.921875 
Q 6 25.140625 12.171875 29.828125 
Q 18.359375 34.515625 30.609375 34.515625 
L 43.21875 34.515625 
L 43.21875 35.40625 
Q 43.21875 41.609375 39.140625 45 
Q 35.0625 48.390625 27.6875 48.390625 
Q 23 48.390625 18.546875 47.265625 
Q 14.109375 46.140625 10.015625 43.890625 
L 10.015625 52.203125 
Q 14.9375 54.109375 19.578125 55.046875 
Q 24.21875 56 28.609375 56 
Q 40.484375 56 46.34375 49.84375 
Q 52.203125 43.703125 52.203125 31.203125 
z
" id="DejaVuSans-97"/>
      <path d="M 9.421875 75.984375 
L 18.40625 75.984375 
L 18.40625 0 
L 9.421875 0 
z
" id="DejaVuSans-108"/>
      <path d="M 32.171875 -5.078125 
Q 28.375 -14.84375 24.75 -17.8125 
Q 21.140625 -20.796875 15.09375 -20.796875 
L 7.90625 -20.796875 
L 7.90625 -13.28125 
L 13.1875 -13.28125 
Q 16.890625 -13.28125 18.9375 -11.515625 
Q 21 -9.765625 23.484375 -3.21875 
L 25.09375 0.875 
L 2.984375 54.6875 
L 12.5 54.6875 
L 29.59375 11.921875 
L 46.6875 54.6875 
L 56.203125 54.6875 
z
" id="DejaVuSans-121"/>
     </defs>
     <g transform="translate(46.067969 152.852562)scale(0.1 -0.1)">
      <use xlink:href="#DejaVuSans-40"/>
      <use x="39.013672" xlink:href="#DejaVuSans-99"/>
      <use x="93.994141" xlink:href="#DejaVuSans-41"/>
      <use x="133.007812" xlink:href="#DejaVuSans-32"/>
      <use x="164.794922" xlink:href="#DejaVuSans-83"/>
      <use x="228.271484" xlink:href="#DejaVuSans-117"/>
      <use x="291.650391" xlink:href="#DejaVuSans-98"/>
      <use x="355.126953" xlink:href="#DejaVuSans-45"/>
      <use x="391.210938" xlink:href="#DejaVuSans-100"/>
      <use x="454.6875" xlink:href="#DejaVuSans-105"/>
      <use x="482.470703" xlink:href="#DejaVuSans-115"/>
      <use x="534.570312" xlink:href="#DejaVuSans-116"/>
      <use x="573.779297" xlink:href="#DejaVuSans-114"/>
      <use x="614.892578" xlink:href="#DejaVuSans-105"/>
      <use x="642.675781" xlink:href="#DejaVuSans-98"/>
      <use x="706.152344" xlink:href="#DejaVuSans-117"/>
      <use x="769.53125" xlink:href="#DejaVuSans-116"/>
      <use x="808.740234" xlink:href="#DejaVuSans-105"/>
      <use x="836.523438" xlink:href="#DejaVuSans-111"/>
      <use x="897.705078" xlink:href="#DejaVuSans-110"/>
      <use x="961.083984" xlink:href="#DejaVuSans-32"/>
      <use x="992.871094" xlink:href="#DejaVuSans-65"/>
      <use x="1061.279297" xlink:href="#DejaVuSans-110"/>
      <use x="1124.658203" xlink:href="#DejaVuSans-97"/>
      <use x="1185.9375" xlink:href="#DejaVuSans-108"/>
      <use x="1213.720703" xlink:href="#DejaVuSans-121"/>
      <use x="1272.900391" xlink:href="#DejaVuSans-115"/>
      <use x="1325" xlink:href="#DejaVuSans-105"/>
      <use x="1352.783203" xlink:href="#DejaVuSans-115"/>
      <use x="1404.882812" xlink:href="#DejaVuSans-32"/>
     </g>
     <!--  on Book-Music NDCG@10 -->
     <defs>
      <path d="M 19.671875 34.8125 
L 19.671875 8.109375 
L 35.5 8.109375 
Q 43.453125 8.109375 47.28125 11.40625 
Q 51.125 14.703125 51.125 21.484375 
Q 51.125 28.328125 47.28125 31.5625 
Q 43.453125 34.8125 35.5 34.8125 
z
M 19.671875 64.796875 
L 19.671875 42.828125 
L 34.28125 42.828125 
Q 41.5 42.828125 45.03125 45.53125 
Q 48.578125 48.25 48.578125 53.8125 
Q 48.578125 59.328125 45.03125 62.0625 
Q 41.5 64.796875 34.28125 64.796875 
z
M 9.8125 72.90625 
L 35.015625 72.90625 
Q 46.296875 72.90625 52.390625 68.21875 
Q 58.5 63.53125 58.5 54.890625 
Q 58.5 48.1875 55.375 44.234375 
Q 52.25 40.28125 46.1875 39.3125 
Q 53.46875 37.75 57.5 32.78125 
Q 61.53125 27.828125 61.53125 20.40625 
Q 61.53125 10.640625 54.890625 5.3125 
Q 48.25 0 35.984375 0 
L 9.8125 0 
z
" id="DejaVuSans-66"/>
      <path d="M 9.078125 75.984375 
L 18.109375 75.984375 
L 18.109375 31.109375 
L 44.921875 54.6875 
L 56.390625 54.6875 
L 27.390625 29.109375 
L 57.625 0 
L 45.90625 0 
L 18.109375 26.703125 
L 18.109375 0 
L 9.078125 0 
z
" id="DejaVuSans-107"/>
      <path d="M 9.8125 72.90625 
L 24.515625 72.90625 
L 43.109375 23.296875 
L 61.8125 72.90625 
L 76.515625 72.90625 
L 76.515625 0 
L 66.890625 0 
L 66.890625 64.015625 
L 48.09375 14.015625 
L 38.1875 14.015625 
L 19.390625 64.015625 
L 19.390625 0 
L 9.8125 0 
z
" id="DejaVuSans-77"/>
      <path d="M 9.8125 72.90625 
L 23.09375 72.90625 
L 55.421875 11.921875 
L 55.421875 72.90625 
L 64.984375 72.90625 
L 64.984375 0 
L 51.703125 0 
L 19.390625 60.984375 
L 19.390625 0 
L 9.8125 0 
z
" id="DejaVuSans-78"/>
      <path d="M 19.671875 64.796875 
L 19.671875 8.109375 
L 31.59375 8.109375 
Q 46.6875 8.109375 53.6875 14.9375 
Q 60.6875 21.78125 60.6875 36.53125 
Q 60.6875 51.171875 53.6875 57.984375 
Q 46.6875 64.796875 31.59375 64.796875 
z
M 9.8125 72.90625 
L 30.078125 72.90625 
Q 51.265625 72.90625 61.171875 64.09375 
Q 71.09375 55.28125 71.09375 36.53125 
Q 71.09375 17.671875 61.125 8.828125 
Q 51.171875 0 30.078125 0 
L 9.8125 0 
z
" id="DejaVuSans-68"/>
      <path d="M 64.40625 67.28125 
L 64.40625 56.890625 
Q 59.421875 61.53125 53.78125 63.8125 
Q 48.140625 66.109375 41.796875 66.109375 
Q 29.296875 66.109375 22.65625 58.46875 
Q 16.015625 50.828125 16.015625 36.375 
Q 16.015625 21.96875 22.65625 14.328125 
Q 29.296875 6.6875 41.796875 6.6875 
Q 48.140625 6.6875 53.78125 8.984375 
Q 59.421875 11.28125 64.40625 15.921875 
L 64.40625 5.609375 
Q 59.234375 2.09375 53.4375 0.328125 
Q 47.65625 -1.421875 41.21875 -1.421875 
Q 24.65625 -1.421875 15.125 8.703125 
Q 5.609375 18.84375 5.609375 36.375 
Q 5.609375 53.953125 15.125 64.078125 
Q 24.65625 74.21875 41.21875 74.21875 
Q 47.75 74.21875 53.53125 72.484375 
Q 59.328125 70.75 64.40625 67.28125 
z
" id="DejaVuSans-67"/>
      <path d="M 59.515625 10.40625 
L 59.515625 29.984375 
L 43.40625 29.984375 
L 43.40625 38.09375 
L 69.28125 38.09375 
L 69.28125 6.78125 
Q 63.578125 2.734375 56.6875 0.65625 
Q 49.8125 -1.421875 42 -1.421875 
Q 24.90625 -1.421875 15.25 8.5625 
Q 5.609375 18.5625 5.609375 36.375 
Q 5.609375 54.25 15.25 64.234375 
Q 24.90625 74.21875 42 74.21875 
Q 49.125 74.21875 55.546875 72.453125 
Q 61.96875 70.703125 67.390625 67.28125 
L 67.390625 56.78125 
Q 61.921875 61.421875 55.765625 63.765625 
Q 49.609375 66.109375 42.828125 66.109375 
Q 29.4375 66.109375 22.71875 58.640625 
Q 16.015625 51.171875 16.015625 36.375 
Q 16.015625 21.625 22.71875 14.15625 
Q 29.4375 6.6875 42.828125 6.6875 
Q 48.046875 6.6875 52.140625 7.59375 
Q 56.25 8.5 59.515625 10.40625 
z
" id="DejaVuSans-71"/>
      <path d="M 37.203125 26.21875 
Q 37.203125 19.234375 40.671875 15.25 
Q 44.140625 11.28125 50.203125 11.28125 
Q 56.203125 11.28125 59.640625 15.28125 
Q 63.09375 19.28125 63.09375 26.21875 
Q 63.09375 33.0625 59.578125 37.078125 
Q 56.0625 41.109375 50.09375 41.109375 
Q 44.1875 41.109375 40.6875 37.109375 
Q 37.203125 33.109375 37.203125 26.21875 
z
M 63.8125 11.625 
Q 60.890625 7.859375 57.109375 6.078125 
Q 53.328125 4.296875 48.296875 4.296875 
Q 39.890625 4.296875 34.640625 10.375 
Q 29.390625 16.453125 29.390625 26.21875 
Q 29.390625 35.984375 34.65625 42.078125 
Q 39.9375 48.1875 48.296875 48.1875 
Q 53.328125 48.1875 57.125 46.359375 
Q 60.9375 44.53125 63.8125 40.828125 
L 63.8125 47.21875 
L 70.796875 47.21875 
L 70.796875 11.28125 
Q 77.9375 12.359375 81.953125 17.796875 
Q 85.984375 23.25 85.984375 31.890625 
Q 85.984375 37.109375 84.4375 41.703125 
Q 82.90625 46.296875 79.78125 50.203125 
Q 74.703125 56.59375 67.40625 59.984375 
Q 60.109375 63.375 51.515625 63.375 
Q 45.515625 63.375 39.984375 61.78125 
Q 34.46875 60.203125 29.78125 57.078125 
Q 22.125 52.09375 17.796875 44.015625 
Q 13.484375 35.9375 13.484375 26.515625 
Q 13.484375 18.75 16.28125 11.953125 
Q 19.09375 5.171875 24.421875 0 
Q 29.546875 -5.078125 36.28125 -7.734375 
Q 43.015625 -10.40625 50.6875 -10.40625 
Q 56.984375 -10.40625 63.0625 -8.28125 
Q 69.140625 -6.15625 74.21875 -2.203125 
L 78.609375 -7.625 
Q 72.515625 -12.359375 65.3125 -14.875 
Q 58.109375 -17.390625 50.6875 -17.390625 
Q 41.65625 -17.390625 33.640625 -14.1875 
Q 25.640625 -10.984375 19.390625 -4.890625 
Q 13.140625 1.21875 9.859375 9.25 
Q 6.59375 17.28125 6.59375 26.515625 
Q 6.59375 35.40625 9.90625 43.453125 
Q 13.234375 51.515625 19.390625 57.625 
Q 25.6875 63.8125 33.9375 67.109375 
Q 42.1875 70.40625 51.421875 70.40625 
Q 61.765625 70.40625 70.625 66.15625 
Q 79.5 61.921875 85.5 54.109375 
Q 89.15625 49.3125 91.078125 43.703125 
Q 93.015625 38.09375 93.015625 32.078125 
Q 93.015625 19.234375 85.25 11.8125 
Q 77.484375 4.390625 63.8125 4.109375 
z
" id="DejaVuSans-64"/>
     </defs>
     <g transform="translate(52.111719 164.050375)scale(0.1 -0.1)">
      <use xlink:href="#DejaVuSans-32"/>
      <use x="31.787109" xlink:href="#DejaVuSans-111"/>
      <use x="92.96875" xlink:href="#DejaVuSans-110"/>
      <use x="156.347656" xlink:href="#DejaVuSans-32"/>
      <use x="188.134766" xlink:href="#DejaVuSans-66"/>
      <use x="256.738281" xlink:href="#DejaVuSans-111"/>
      <use x="317.919922" xlink:href="#DejaVuSans-111"/>
      <use x="379.101562" xlink:href="#DejaVuSans-107"/>
      <use x="437.011719" xlink:href="#DejaVuSans-45"/>
      <use x="473.095703" xlink:href="#DejaVuSans-77"/>
      <use x="559.375" xlink:href="#DejaVuSans-117"/>
      <use x="622.753906" xlink:href="#DejaVuSans-115"/>
      <use x="674.853516" xlink:href="#DejaVuSans-105"/>
      <use x="702.636719" xlink:href="#DejaVuSans-99"/>
      <use x="757.617188" xlink:href="#DejaVuSans-32"/>
      <use x="789.404297" xlink:href="#DejaVuSans-78"/>
      <use x="864.208984" xlink:href="#DejaVuSans-68"/>
      <use x="941.210938" xlink:href="#DejaVuSans-67"/>
      <use x="1011.035156" xlink:href="#DejaVuSans-71"/>
      <use x="1088.525391" xlink:href="#DejaVuSans-64"/>
      <use x="1188.525391" xlink:href="#DejaVuSans-49"/>
      <use x="1252.148438" xlink:href="#DejaVuSans-48"/>
     </g>
    </g>
   </g>
   <g id="matplotlib.axis_2">
    <g id="ytick_1">
     <g id="line2d_7">
      <defs>
       <path d="M 0 0 
L -3.5 0 
" id="m3ab7987c6e" style="stroke:#000000;stroke-width:0.8;"/>
      </defs>
      <g>
       <use style="stroke:#000000;stroke-width:0.8;" x="40.12" xlink:href="#m3ab7987c6e" y="124.576"/>
      </g>
     </g>
     <g id="text_8">
      <!-- 0.21 -->
      <defs>
       <path d="M 10.6875 12.40625 
L 21 12.40625 
L 21 0 
L 10.6875 0 
z
" id="DejaVuSans-46"/>
      </defs>
      <g transform="translate(10.854375 128.375219)scale(0.1 -0.1)">
       <use xlink:href="#DejaVuSans-48"/>
       <use x="63.623047" xlink:href="#DejaVuSans-46"/>
       <use x="95.410156" xlink:href="#DejaVuSans-50"/>
       <use x="159.033203" xlink:href="#DejaVuSans-49"/>
      </g>
     </g>
    </g>
    <g id="ytick_2">
     <g id="line2d_8">
      <g>
       <use style="stroke:#000000;stroke-width:0.8;" x="40.12" xlink:href="#m3ab7987c6e" y="96.132"/>
      </g>
     </g>
     <g id="text_9">
      <!-- 0.22 -->
      <g transform="translate(10.854375 99.931219)scale(0.1 -0.1)">
       <use xlink:href="#DejaVuSans-48"/>
       <use x="63.623047" xlink:href="#DejaVuSans-46"/>
       <use x="95.410156" xlink:href="#DejaVuSans-50"/>
       <use x="159.033203" xlink:href="#DejaVuSans-50"/>
      </g>
     </g>
    </g>
    <g id="ytick_3">
     <g id="line2d_9">
      <g>
       <use style="stroke:#000000;stroke-width:0.8;" x="40.12" xlink:href="#m3ab7987c6e" y="67.688"/>
      </g>
     </g>
     <g id="text_10">
      <!-- 0.23 -->
      <g transform="translate(10.854375 71.487219)scale(0.1 -0.1)">
       <use xlink:href="#DejaVuSans-48"/>
       <use x="63.623047" xlink:href="#DejaVuSans-46"/>
       <use x="95.410156" xlink:href="#DejaVuSans-50"/>
       <use x="159.033203" xlink:href="#DejaVuSans-51"/>
      </g>
     </g>
    </g>
    <g id="ytick_4">
     <g id="line2d_10">
      <g>
       <use style="stroke:#000000;stroke-width:0.8;" x="40.12" xlink:href="#m3ab7987c6e" y="39.244"/>
      </g>
     </g>
     <g id="text_11">
      <!-- 0.24 -->
      <g transform="translate(10.854375 43.043219)scale(0.1 -0.1)">
       <use xlink:href="#DejaVuSans-48"/>
       <use x="63.623047" xlink:href="#DejaVuSans-46"/>
       <use x="95.410156" xlink:href="#DejaVuSans-50"/>
       <use x="159.033203" xlink:href="#DejaVuSans-52"/>
      </g>
     </g>
    </g>
   </g>
   <g id="patch_9">
    <path d="M 40.12 124.576 
L 40.12 10.8 
" style="fill:none;stroke:#000000;stroke-linecap:square;stroke-linejoin:miter;stroke-width:0.8;"/>
   </g>
   <g id="patch_10">
    <path d="M 195.68 124.576 
L 195.68 10.8 
" style="fill:none;stroke:#000000;stroke-linecap:square;stroke-linejoin:miter;stroke-width:0.8;"/>
   </g>
   <g id="patch_11">
    <path d="M 40.12 124.576 
L 195.68 124.576 
" style="fill:none;stroke:#000000;stroke-linecap:square;stroke-linejoin:miter;stroke-width:0.8;"/>
   </g>
   <g id="patch_12">
    <path d="M 40.12 10.8 
L 195.68 10.8 
" style="fill:none;stroke:#000000;stroke-linecap:square;stroke-linejoin:miter;stroke-width:0.8;"/>
   </g>
   <g id="legend_1">
    <g id="patch_13">
     <path d="M 45.72 28.9425 
L 91.23125 28.9425 
Q 92.83125 28.9425 92.83125 27.3425 
L 92.83125 16.4 
Q 92.83125 14.8 91.23125 14.8 
L 45.72 14.8 
Q 44.12 14.8 44.12 16.4 
L 44.12 27.3425 
Q 44.12 28.9425 45.72 28.9425 
z
" style="fill:#ffffff;opacity:0.8;stroke:#cccccc;stroke-linejoin:miter;"/>
    </g>
    <g id="patch_14">
     <path d="M 47.32 24.07875 
L 63.32 24.07875 
L 63.32 18.47875 
L 47.32 18.47875 
z
" style="fill:#fa7f6f;"/>
    </g>
    <g id="text_12">
     <!-- Book -->
     <g transform="translate(69.72 24.07875)scale(0.08 -0.08)">
      <use xlink:href="#DejaVuSans-66"/>
      <use x="68.603516" xlink:href="#DejaVuSans-111"/>
      <use x="129.785156" xlink:href="#DejaVuSans-111"/>
      <use x="190.966797" xlink:href="#DejaVuSans-107"/>
     </g>
    </g>
   </g>
  </g>
  <g id="axes_2">
   <g id="patch_15">
    <path d="M 265.12 124.576 
L 420.68 124.576 
L 420.68 10.8 
L 265.12 10.8 
z
" style="fill:#ffffff;"/>
   </g>
   <g id="patch_16">
    <path clip-path="url(#pe02be27019)" d="M 272.190909 778.788 
L 280.874482 778.788 
L 280.874482 72.876186 
L 272.190909 72.876186 
z
" style="fill:#fa7f6f;"/>
   </g>
   <g id="patch_17">
    <path clip-path="url(#pe02be27019)" d="M 297.001116 778.788 
L 305.684689 778.788 
L 305.684689 73.780705 
L 297.001116 73.780705 
z
" style="fill:#fa7f6f;"/>
   </g>
   <g id="patch_18">
    <path clip-path="url(#pe02be27019)" d="M 321.811324 778.788 
L 330.494896 778.788 
L 330.494896 63.51811 
L 321.811324 63.51811 
z
" style="fill:#fa7f6f;"/>
   </g>
   <g id="patch_19">
    <path clip-path="url(#pe02be27019)" d="M 346.621531 778.788 
L 355.305104 778.788 
L 355.305104 44.64836 
L 346.621531 44.64836 
z
" style="fill:#fa7f6f;"/>
   </g>
   <g id="patch_20">
    <path clip-path="url(#pe02be27019)" d="M 371.431738 778.788 
L 380.115311 778.788 
L 380.115311 73.678306 
L 371.431738 73.678306 
z
" style="fill:#fa7f6f;"/>
   </g>
   <g id="patch_21">
    <path clip-path="url(#pe02be27019)" d="M 396.241946 778.788 
L 404.925518 778.788 
L 404.925518 77.014788 
L 396.241946 77.014788 
z
" style="fill:#fa7f6f;"/>
   </g>
   <g id="matplotlib.axis_3">
    <g id="xtick_7">
     <g id="line2d_11">
      <g>
       <use style="stroke:#000000;stroke-width:0.8;" x="280.874482" xlink:href="#m2d400e1005" y="124.576"/>
      </g>
     </g>
     <g id="text_13">
      <!-- 10 -->
      <g transform="translate(274.511982 139.174437)scale(0.1 -0.1)">
       <use xlink:href="#DejaVuSans-49"/>
       <use x="63.623047" xlink:href="#DejaVuSans-48"/>
      </g>
     </g>
    </g>
    <g id="xtick_8">
     <g id="line2d_12">
      <g>
       <use style="stroke:#000000;stroke-width:0.8;" x="305.684689" xlink:href="#m2d400e1005" y="124.576"/>
      </g>
     </g>
     <g id="text_14">
      <!-- 20 -->
      <g transform="translate(299.322189 139.174437)scale(0.1 -0.1)">
       <use xlink:href="#DejaVuSans-50"/>
       <use x="63.623047" xlink:href="#DejaVuSans-48"/>
      </g>
     </g>
    </g>
    <g id="xtick_9">
     <g id="line2d_13">
      <g>
       <use style="stroke:#000000;stroke-width:0.8;" x="330.494896" xlink:href="#m2d400e1005" y="124.576"/>
      </g>
     </g>
     <g id="text_15">
      <!-- 30 -->
      <g transform="translate(324.132396 139.174437)scale(0.1 -0.1)">
       <use xlink:href="#DejaVuSans-51"/>
       <use x="63.623047" xlink:href="#DejaVuSans-48"/>
      </g>
     </g>
    </g>
    <g id="xtick_10">
     <g id="line2d_14">
      <g>
       <use style="stroke:#000000;stroke-width:0.8;" x="355.305104" xlink:href="#m2d400e1005" y="124.576"/>
      </g>
     </g>
     <g id="text_16">
      <!-- 40 -->
      <g transform="translate(348.942604 139.174437)scale(0.1 -0.1)">
       <use xlink:href="#DejaVuSans-52"/>
       <use x="63.623047" xlink:href="#DejaVuSans-48"/>
      </g>
     </g>
    </g>
    <g id="xtick_11">
     <g id="line2d_15">
      <g>
       <use style="stroke:#000000;stroke-width:0.8;" x="380.115311" xlink:href="#m2d400e1005" y="124.576"/>
      </g>
     </g>
     <g id="text_17">
      <!-- 50 -->
      <g transform="translate(373.752811 139.174437)scale(0.1 -0.1)">
       <use xlink:href="#DejaVuSans-53"/>
       <use x="63.623047" xlink:href="#DejaVuSans-48"/>
      </g>
     </g>
    </g>
    <g id="xtick_12">
     <g id="line2d_16">
      <g>
       <use style="stroke:#000000;stroke-width:0.8;" x="404.925518" xlink:href="#m2d400e1005" y="124.576"/>
      </g>
     </g>
     <g id="text_18">
      <!-- 60 -->
      <g transform="translate(398.563018 139.174437)scale(0.1 -0.1)">
       <use xlink:href="#DejaVuSans-54"/>
       <use x="63.623047" xlink:href="#DejaVuSans-48"/>
      </g>
     </g>
    </g>
    <g id="text_19">
     <!-- (d) Sub-distribution Analysis  -->
     <g transform="translate(270.642969 152.852562)scale(0.1 -0.1)">
      <use xlink:href="#DejaVuSans-40"/>
      <use x="39.013672" xlink:href="#DejaVuSans-100"/>
      <use x="102.490234" xlink:href="#DejaVuSans-41"/>
      <use x="141.503906" xlink:href="#DejaVuSans-32"/>
      <use x="173.291016" xlink:href="#DejaVuSans-83"/>
      <use x="236.767578" xlink:href="#DejaVuSans-117"/>
      <use x="300.146484" xlink:href="#DejaVuSans-98"/>
      <use x="363.623047" xlink:href="#DejaVuSans-45"/>
      <use x="399.707031" xlink:href="#DejaVuSans-100"/>
      <use x="463.183594" xlink:href="#DejaVuSans-105"/>
      <use x="490.966797" xlink:href="#DejaVuSans-115"/>
      <use x="543.066406" xlink:href="#DejaVuSans-116"/>
      <use x="582.275391" xlink:href="#DejaVuSans-114"/>
      <use x="623.388672" xlink:href="#DejaVuSans-105"/>
      <use x="651.171875" xlink:href="#DejaVuSans-98"/>
      <use x="714.648438" xlink:href="#DejaVuSans-117"/>
      <use x="778.027344" xlink:href="#DejaVuSans-116"/>
      <use x="817.236328" xlink:href="#DejaVuSans-105"/>
      <use x="845.019531" xlink:href="#DejaVuSans-111"/>
      <use x="906.201172" xlink:href="#DejaVuSans-110"/>
      <use x="969.580078" xlink:href="#DejaVuSans-32"/>
      <use x="1001.367188" xlink:href="#DejaVuSans-65"/>
      <use x="1069.775391" xlink:href="#DejaVuSans-110"/>
      <use x="1133.154297" xlink:href="#DejaVuSans-97"/>
      <use x="1194.433594" xlink:href="#DejaVuSans-108"/>
      <use x="1222.216797" xlink:href="#DejaVuSans-121"/>
      <use x="1281.396484" xlink:href="#DejaVuSans-115"/>
      <use x="1333.496094" xlink:href="#DejaVuSans-105"/>
      <use x="1361.279297" xlink:href="#DejaVuSans-115"/>
      <use x="1413.378906" xlink:href="#DejaVuSans-32"/>
     </g>
     <!--  on Book-Movie NDCG@10 -->
     <defs>
      <path d="M 2.984375 54.6875 
L 12.5 54.6875 
L 29.59375 8.796875 
L 46.6875 54.6875 
L 56.203125 54.6875 
L 35.6875 0 
L 23.484375 0 
z
" id="DejaVuSans-118"/>
      <path d="M 56.203125 29.59375 
L 56.203125 25.203125 
L 14.890625 25.203125 
Q 15.484375 15.921875 20.484375 11.0625 
Q 25.484375 6.203125 34.421875 6.203125 
Q 39.59375 6.203125 44.453125 7.46875 
Q 49.3125 8.734375 54.109375 11.28125 
L 54.109375 2.78125 
Q 49.265625 0.734375 44.1875 -0.34375 
Q 39.109375 -1.421875 33.890625 -1.421875 
Q 20.796875 -1.421875 13.15625 6.1875 
Q 5.515625 13.8125 5.515625 26.8125 
Q 5.515625 40.234375 12.765625 48.109375 
Q 20.015625 56 32.328125 56 
Q 43.359375 56 49.78125 48.890625 
Q 56.203125 41.796875 56.203125 29.59375 
z
M 47.21875 32.234375 
Q 47.125 39.59375 43.09375 43.984375 
Q 39.0625 48.390625 32.421875 48.390625 
Q 24.90625 48.390625 20.390625 44.140625 
Q 15.875 39.890625 15.1875 32.171875 
z
" id="DejaVuSans-101"/>
     </defs>
     <g transform="translate(276.539062 164.050375)scale(0.1 -0.1)">
      <use xlink:href="#DejaVuSans-32"/>
      <use x="31.787109" xlink:href="#DejaVuSans-111"/>
      <use x="92.96875" xlink:href="#DejaVuSans-110"/>
      <use x="156.347656" xlink:href="#DejaVuSans-32"/>
      <use x="188.134766" xlink:href="#DejaVuSans-66"/>
      <use x="256.738281" xlink:href="#DejaVuSans-111"/>
      <use x="317.919922" xlink:href="#DejaVuSans-111"/>
      <use x="379.101562" xlink:href="#DejaVuSans-107"/>
      <use x="437.011719" xlink:href="#DejaVuSans-45"/>
      <use x="473.095703" xlink:href="#DejaVuSans-77"/>
      <use x="559.375" xlink:href="#DejaVuSans-111"/>
      <use x="620.556641" xlink:href="#DejaVuSans-118"/>
      <use x="679.736328" xlink:href="#DejaVuSans-105"/>
      <use x="707.519531" xlink:href="#DejaVuSans-101"/>
      <use x="769.042969" xlink:href="#DejaVuSans-32"/>
      <use x="800.830078" xlink:href="#DejaVuSans-78"/>
      <use x="875.634766" xlink:href="#DejaVuSans-68"/>
      <use x="952.636719" xlink:href="#DejaVuSans-67"/>
      <use x="1022.460938" xlink:href="#DejaVuSans-71"/>
      <use x="1099.951172" xlink:href="#DejaVuSans-64"/>
      <use x="1199.951172" xlink:href="#DejaVuSans-49"/>
      <use x="1263.574219" xlink:href="#DejaVuSans-48"/>
     </g>
    </g>
   </g>
   <g id="matplotlib.axis_4">
    <g id="ytick_5">
     <g id="line2d_17">
      <g>
       <use style="stroke:#000000;stroke-width:0.8;" x="265.12" xlink:href="#m3ab7987c6e" y="124.576"/>
      </g>
     </g>
     <g id="text_20">
      <!-- 0.23 -->
      <g transform="translate(235.854375 128.375219)scale(0.1 -0.1)">
       <use xlink:href="#DejaVuSans-48"/>
       <use x="63.623047" xlink:href="#DejaVuSans-46"/>
       <use x="95.410156" xlink:href="#DejaVuSans-50"/>
       <use x="159.033203" xlink:href="#DejaVuSans-51"/>
      </g>
     </g>
    </g>
    <g id="ytick_6">
     <g id="line2d_18">
      <g>
       <use style="stroke:#000000;stroke-width:0.8;" x="265.12" xlink:href="#m3ab7987c6e" y="96.132"/>
      </g>
     </g>
     <g id="text_21">
      <!-- 0.24 -->
      <g transform="translate(235.854375 99.931219)scale(0.1 -0.1)">
       <use xlink:href="#DejaVuSans-48"/>
       <use x="63.623047" xlink:href="#DejaVuSans-46"/>
       <use x="95.410156" xlink:href="#DejaVuSans-50"/>
       <use x="159.033203" xlink:href="#DejaVuSans-52"/>
      </g>
     </g>
    </g>
    <g id="ytick_7">
     <g id="line2d_19">
      <g>
       <use style="stroke:#000000;stroke-width:0.8;" x="265.12" xlink:href="#m3ab7987c6e" y="67.688"/>
      </g>
     </g>
     <g id="text_22">
      <!-- 0.25 -->
      <g transform="translate(235.854375 71.487219)scale(0.1 -0.1)">
       <use xlink:href="#DejaVuSans-48"/>
       <use x="63.623047" xlink:href="#DejaVuSans-46"/>
       <use x="95.410156" xlink:href="#DejaVuSans-50"/>
       <use x="159.033203" xlink:href="#DejaVuSans-53"/>
      </g>
     </g>
    </g>
    <g id="ytick_8">
     <g id="line2d_20">
      <g>
       <use style="stroke:#000000;stroke-width:0.8;" x="265.12" xlink:href="#m3ab7987c6e" y="39.244"/>
      </g>
     </g>
     <g id="text_23">
      <!-- 0.26 -->
      <g transform="translate(235.854375 43.043219)scale(0.1 -0.1)">
       <use xlink:href="#DejaVuSans-48"/>
       <use x="63.623047" xlink:href="#DejaVuSans-46"/>
       <use x="95.410156" xlink:href="#DejaVuSans-50"/>
       <use x="159.033203" xlink:href="#DejaVuSans-54"/>
      </g>
     </g>
    </g>
   </g>
   <g id="patch_22">
    <path d="M 265.12 124.576 
L 265.12 10.8 
" style="fill:none;stroke:#000000;stroke-linecap:square;stroke-linejoin:miter;stroke-width:0.8;"/>
   </g>
   <g id="patch_23">
    <path d="M 420.68 124.576 
L 420.68 10.8 
" style="fill:none;stroke:#000000;stroke-linecap:square;stroke-linejoin:miter;stroke-width:0.8;"/>
   </g>
   <g id="patch_24">
    <path d="M 265.12 124.576 
L 420.68 124.576 
" style="fill:none;stroke:#000000;stroke-linecap:square;stroke-linejoin:miter;stroke-width:0.8;"/>
   </g>
   <g id="patch_25">
    <path d="M 265.12 10.8 
L 420.68 10.8 
" style="fill:none;stroke:#000000;stroke-linecap:square;stroke-linejoin:miter;stroke-width:0.8;"/>
   </g>
   <g id="legend_2">
    <g id="patch_26">
     <path d="M 270.72 28.9425 
L 316.23125 28.9425 
Q 317.83125 28.9425 317.83125 27.3425 
L 317.83125 16.4 
Q 317.83125 14.8 316.23125 14.8 
L 270.72 14.8 
Q 269.12 14.8 269.12 16.4 
L 269.12 27.3425 
Q 269.12 28.9425 270.72 28.9425 
z
" style="fill:#ffffff;opacity:0.8;stroke:#cccccc;stroke-linejoin:miter;"/>
    </g>
    <g id="patch_27">
     <path d="M 272.32 24.07875 
L 288.32 24.07875 
L 288.32 18.47875 
L 272.32 18.47875 
z
" style="fill:#fa7f6f;"/>
    </g>
    <g id="text_24">
     <!-- Book -->
     <g transform="translate(294.72 24.07875)scale(0.08 -0.08)">
      <use xlink:href="#DejaVuSans-66"/>
      <use x="68.603516" xlink:href="#DejaVuSans-111"/>
      <use x="129.785156" xlink:href="#DejaVuSans-111"/>
      <use x="190.966797" xlink:href="#DejaVuSans-107"/>
     </g>
    </g>
   </g>
  </g>
  <g id="axes_3">
   <g id="patch_28">
    <path d="M 40.12 291.976 
L 195.68 291.976 
L 195.68 178.2 
L 40.12 178.2 
z
" style="fill:#ffffff;"/>
   </g>
   <g id="patch_29">
    <path clip-path="url(#pa4be3447e7)" d="M 47.190909 889.3 
L 55.874482 889.3 
L 55.874482 266.840037 
L 47.190909 266.840037 
z
" style="fill:#fa7f6f;"/>
   </g>
   <g id="patch_30">
    <path clip-path="url(#pa4be3447e7)" d="M 72.001116 889.3 
L 80.684689 889.3 
L 80.684689 260.539691 
L 72.001116 260.539691 
z
" style="fill:#fa7f6f;"/>
   </g>
   <g id="patch_31">
    <path clip-path="url(#pa4be3447e7)" d="M 96.811324 889.3 
L 105.494896 889.3 
L 105.494896 260.622179 
L 96.811324 260.622179 
z
" style="fill:#fa7f6f;"/>
   </g>
   <g id="patch_32">
    <path clip-path="url(#pa4be3447e7)" d="M 121.621531 889.3 
L 130.305104 889.3 
L 130.305104 227.69256 
L 121.621531 227.69256 
z
" style="fill:#fa7f6f;"/>
   </g>
   <g id="patch_33">
    <path clip-path="url(#pa4be3447e7)" d="M 146.431738 889.3 
L 155.115311 889.3 
L 155.115311 233.890508 
L 146.431738 233.890508 
z
" style="fill:#fa7f6f;"/>
   </g>
   <g id="patch_34">
    <path clip-path="url(#pa4be3447e7)" d="M 171.241946 889.3 
L 179.925518 889.3 
L 179.925518 238.68901 
L 171.241946 238.68901 
z
" style="fill:#fa7f6f;"/>
   </g>
   <g id="matplotlib.axis_5">
    <g id="xtick_13">
     <g id="line2d_21">
      <g>
       <use style="stroke:#000000;stroke-width:0.8;" x="55.874482" xlink:href="#m2d400e1005" y="291.976"/>
      </g>
     </g>
     <g id="text_25">
      <!-- 10 -->
      <g transform="translate(49.511982 306.574437)scale(0.1 -0.1)">
       <use xlink:href="#DejaVuSans-49"/>
       <use x="63.623047" xlink:href="#DejaVuSans-48"/>
      </g>
     </g>
    </g>
    <g id="xtick_14">
     <g id="line2d_22">
      <g>
       <use style="stroke:#000000;stroke-width:0.8;" x="80.684689" xlink:href="#m2d400e1005" y="291.976"/>
      </g>
     </g>
     <g id="text_26">
      <!-- 20 -->
      <g transform="translate(74.322189 306.574437)scale(0.1 -0.1)">
       <use xlink:href="#DejaVuSans-50"/>
       <use x="63.623047" xlink:href="#DejaVuSans-48"/>
      </g>
     </g>
    </g>
    <g id="xtick_15">
     <g id="line2d_23">
      <g>
       <use style="stroke:#000000;stroke-width:0.8;" x="105.494896" xlink:href="#m2d400e1005" y="291.976"/>
      </g>
     </g>
     <g id="text_27">
      <!-- 30 -->
      <g transform="translate(99.132396 306.574437)scale(0.1 -0.1)">
       <use xlink:href="#DejaVuSans-51"/>
       <use x="63.623047" xlink:href="#DejaVuSans-48"/>
      </g>
     </g>
    </g>
    <g id="xtick_16">
     <g id="line2d_24">
      <g>
       <use style="stroke:#000000;stroke-width:0.8;" x="130.305104" xlink:href="#m2d400e1005" y="291.976"/>
      </g>
     </g>
     <g id="text_28">
      <!-- 40 -->
      <g transform="translate(123.942604 306.574437)scale(0.1 -0.1)">
       <use xlink:href="#DejaVuSans-52"/>
       <use x="63.623047" xlink:href="#DejaVuSans-48"/>
      </g>
     </g>
    </g>
    <g id="xtick_17">
     <g id="line2d_25">
      <g>
       <use style="stroke:#000000;stroke-width:0.8;" x="155.115311" xlink:href="#m2d400e1005" y="291.976"/>
      </g>
     </g>
     <g id="text_29">
      <!-- 50 -->
      <g transform="translate(148.752811 306.574437)scale(0.1 -0.1)">
       <use xlink:href="#DejaVuSans-53"/>
       <use x="63.623047" xlink:href="#DejaVuSans-48"/>
      </g>
     </g>
    </g>
    <g id="xtick_18">
     <g id="line2d_26">
      <g>
       <use style="stroke:#000000;stroke-width:0.8;" x="179.925518" xlink:href="#m2d400e1005" y="291.976"/>
      </g>
     </g>
     <g id="text_30">
      <!-- 60 -->
      <g transform="translate(173.563018 306.574437)scale(0.1 -0.1)">
       <use xlink:href="#DejaVuSans-54"/>
       <use x="63.623047" xlink:href="#DejaVuSans-48"/>
      </g>
     </g>
    </g>
    <g id="text_31">
     <!-- (c) Sub-distribution Analysis  -->
     <g transform="translate(46.067969 320.252562)scale(0.1 -0.1)">
      <use xlink:href="#DejaVuSans-40"/>
      <use x="39.013672" xlink:href="#DejaVuSans-99"/>
      <use x="93.994141" xlink:href="#DejaVuSans-41"/>
      <use x="133.007812" xlink:href="#DejaVuSans-32"/>
      <use x="164.794922" xlink:href="#DejaVuSans-83"/>
      <use x="228.271484" xlink:href="#DejaVuSans-117"/>
      <use x="291.650391" xlink:href="#DejaVuSans-98"/>
      <use x="355.126953" xlink:href="#DejaVuSans-45"/>
      <use x="391.210938" xlink:href="#DejaVuSans-100"/>
      <use x="454.6875" xlink:href="#DejaVuSans-105"/>
      <use x="482.470703" xlink:href="#DejaVuSans-115"/>
      <use x="534.570312" xlink:href="#DejaVuSans-116"/>
      <use x="573.779297" xlink:href="#DejaVuSans-114"/>
      <use x="614.892578" xlink:href="#DejaVuSans-105"/>
      <use x="642.675781" xlink:href="#DejaVuSans-98"/>
      <use x="706.152344" xlink:href="#DejaVuSans-117"/>
      <use x="769.53125" xlink:href="#DejaVuSans-116"/>
      <use x="808.740234" xlink:href="#DejaVuSans-105"/>
      <use x="836.523438" xlink:href="#DejaVuSans-111"/>
      <use x="897.705078" xlink:href="#DejaVuSans-110"/>
      <use x="961.083984" xlink:href="#DejaVuSans-32"/>
      <use x="992.871094" xlink:href="#DejaVuSans-65"/>
      <use x="1061.279297" xlink:href="#DejaVuSans-110"/>
      <use x="1124.658203" xlink:href="#DejaVuSans-97"/>
      <use x="1185.9375" xlink:href="#DejaVuSans-108"/>
      <use x="1213.720703" xlink:href="#DejaVuSans-121"/>
      <use x="1272.900391" xlink:href="#DejaVuSans-115"/>
      <use x="1325" xlink:href="#DejaVuSans-105"/>
      <use x="1352.783203" xlink:href="#DejaVuSans-115"/>
      <use x="1404.882812" xlink:href="#DejaVuSans-32"/>
     </g>
     <!--  on Book-Music HR@10 -->
     <defs>
      <path d="M 9.8125 72.90625 
L 19.671875 72.90625 
L 19.671875 43.015625 
L 55.515625 43.015625 
L 55.515625 72.90625 
L 65.375 72.90625 
L 65.375 0 
L 55.515625 0 
L 55.515625 34.71875 
L 19.671875 34.71875 
L 19.671875 0 
L 9.8125 0 
z
" id="DejaVuSans-72"/>
      <path d="M 44.390625 34.1875 
Q 47.5625 33.109375 50.5625 29.59375 
Q 53.5625 26.078125 56.59375 19.921875 
L 66.609375 0 
L 56 0 
L 46.6875 18.703125 
Q 43.0625 26.03125 39.671875 28.421875 
Q 36.28125 30.8125 30.421875 30.8125 
L 19.671875 30.8125 
L 19.671875 0 
L 9.8125 0 
L 9.8125 72.90625 
L 32.078125 72.90625 
Q 44.578125 72.90625 50.734375 67.671875 
Q 56.890625 62.453125 56.890625 51.90625 
Q 56.890625 45.015625 53.6875 40.46875 
Q 50.484375 35.9375 44.390625 34.1875 
z
M 19.671875 64.796875 
L 19.671875 38.921875 
L 32.078125 38.921875 
Q 39.203125 38.921875 42.84375 42.21875 
Q 46.484375 45.515625 46.484375 51.90625 
Q 46.484375 58.296875 42.84375 61.546875 
Q 39.203125 64.796875 32.078125 64.796875 
z
" id="DejaVuSans-82"/>
     </defs>
     <g transform="translate(59.833594 331.450375)scale(0.1 -0.1)">
      <use xlink:href="#DejaVuSans-32"/>
      <use x="31.787109" xlink:href="#DejaVuSans-111"/>
      <use x="92.96875" xlink:href="#DejaVuSans-110"/>
      <use x="156.347656" xlink:href="#DejaVuSans-32"/>
      <use x="188.134766" xlink:href="#DejaVuSans-66"/>
      <use x="256.738281" xlink:href="#DejaVuSans-111"/>
      <use x="317.919922" xlink:href="#DejaVuSans-111"/>
      <use x="379.101562" xlink:href="#DejaVuSans-107"/>
      <use x="437.011719" xlink:href="#DejaVuSans-45"/>
      <use x="473.095703" xlink:href="#DejaVuSans-77"/>
      <use x="559.375" xlink:href="#DejaVuSans-117"/>
      <use x="622.753906" xlink:href="#DejaVuSans-115"/>
      <use x="674.853516" xlink:href="#DejaVuSans-105"/>
      <use x="702.636719" xlink:href="#DejaVuSans-99"/>
      <use x="757.617188" xlink:href="#DejaVuSans-32"/>
      <use x="789.404297" xlink:href="#DejaVuSans-72"/>
      <use x="864.599609" xlink:href="#DejaVuSans-82"/>
      <use x="934.082031" xlink:href="#DejaVuSans-64"/>
      <use x="1034.082031" xlink:href="#DejaVuSans-49"/>
      <use x="1097.705078" xlink:href="#DejaVuSans-48"/>
     </g>
    </g>
   </g>
   <g id="matplotlib.axis_6">
    <g id="ytick_9">
     <g id="line2d_27">
      <g>
       <use style="stroke:#000000;stroke-width:0.8;" x="40.12" xlink:href="#m3ab7987c6e" y="291.976"/>
      </g>
     </g>
     <g id="text_32">
      <!-- 0.21 -->
      <g transform="translate(10.854375 295.775219)scale(0.1 -0.1)">
       <use xlink:href="#DejaVuSans-48"/>
       <use x="63.623047" xlink:href="#DejaVuSans-46"/>
       <use x="95.410156" xlink:href="#DejaVuSans-50"/>
       <use x="159.033203" xlink:href="#DejaVuSans-49"/>
      </g>
     </g>
    </g>
    <g id="ytick_10">
     <g id="line2d_28">
      <g>
       <use style="stroke:#000000;stroke-width:0.8;" x="40.12" xlink:href="#m3ab7987c6e" y="263.532"/>
      </g>
     </g>
     <g id="text_33">
      <!-- 0.22 -->
      <g transform="translate(10.854375 267.331219)scale(0.1 -0.1)">
       <use xlink:href="#DejaVuSans-48"/>
       <use x="63.623047" xlink:href="#DejaVuSans-46"/>
       <use x="95.410156" xlink:href="#DejaVuSans-50"/>
       <use x="159.033203" xlink:href="#DejaVuSans-50"/>
      </g>
     </g>
    </g>
    <g id="ytick_11">
     <g id="line2d_29">
      <g>
       <use style="stroke:#000000;stroke-width:0.8;" x="40.12" xlink:href="#m3ab7987c6e" y="235.088"/>
      </g>
     </g>
     <g id="text_34">
      <!-- 0.23 -->
      <g transform="translate(10.854375 238.887219)scale(0.1 -0.1)">
       <use xlink:href="#DejaVuSans-48"/>
       <use x="63.623047" xlink:href="#DejaVuSans-46"/>
       <use x="95.410156" xlink:href="#DejaVuSans-50"/>
       <use x="159.033203" xlink:href="#DejaVuSans-51"/>
      </g>
     </g>
    </g>
    <g id="ytick_12">
     <g id="line2d_30">
      <g>
       <use style="stroke:#000000;stroke-width:0.8;" x="40.12" xlink:href="#m3ab7987c6e" y="206.644"/>
      </g>
     </g>
     <g id="text_35">
      <!-- 0.24 -->
      <g transform="translate(10.854375 210.443219)scale(0.1 -0.1)">
       <use xlink:href="#DejaVuSans-48"/>
       <use x="63.623047" xlink:href="#DejaVuSans-46"/>
       <use x="95.410156" xlink:href="#DejaVuSans-50"/>
       <use x="159.033203" xlink:href="#DejaVuSans-52"/>
      </g>
     </g>
    </g>
   </g>
   <g id="patch_35">
    <path d="M 40.12 291.976 
L 40.12 178.2 
" style="fill:none;stroke:#000000;stroke-linecap:square;stroke-linejoin:miter;stroke-width:0.8;"/>
   </g>
   <g id="patch_36">
    <path d="M 195.68 291.976 
L 195.68 178.2 
" style="fill:none;stroke:#000000;stroke-linecap:square;stroke-linejoin:miter;stroke-width:0.8;"/>
   </g>
   <g id="patch_37">
    <path d="M 40.12 291.976 
L 195.68 291.976 
" style="fill:none;stroke:#000000;stroke-linecap:square;stroke-linejoin:miter;stroke-width:0.8;"/>
   </g>
   <g id="patch_38">
    <path d="M 40.12 178.2 
L 195.68 178.2 
" style="fill:none;stroke:#000000;stroke-linecap:square;stroke-linejoin:miter;stroke-width:0.8;"/>
   </g>
   <g id="legend_3">
    <g id="patch_39">
     <path d="M 45.72 196.3425 
L 91.23125 196.3425 
Q 92.83125 196.3425 92.83125 194.7425 
L 92.83125 183.8 
Q 92.83125 182.2 91.23125 182.2 
L 45.72 182.2 
Q 44.12 182.2 44.12 183.8 
L 44.12 194.7425 
Q 44.12 196.3425 45.72 196.3425 
z
" style="fill:#ffffff;opacity:0.8;stroke:#cccccc;stroke-linejoin:miter;"/>
    </g>
    <g id="patch_40">
     <path d="M 47.32 191.47875 
L 63.32 191.47875 
L 63.32 185.87875 
L 47.32 185.87875 
z
" style="fill:#fa7f6f;"/>
    </g>
    <g id="text_36">
     <!-- Book -->
     <g transform="translate(69.72 191.47875)scale(0.08 -0.08)">
      <use xlink:href="#DejaVuSans-66"/>
      <use x="68.603516" xlink:href="#DejaVuSans-111"/>
      <use x="129.785156" xlink:href="#DejaVuSans-111"/>
      <use x="190.966797" xlink:href="#DejaVuSans-107"/>
     </g>
    </g>
   </g>
  </g>
  <g id="axes_4">
   <g id="patch_41">
    <path d="M 265.12 291.976 
L 420.68 291.976 
L 420.68 178.2 
L 265.12 178.2 
z
" style="fill:#ffffff;"/>
   </g>
   <g id="patch_42">
    <path clip-path="url(#p202cd552fa)" d="M 272.190909 1486.624 
L 280.874482 1486.624 
L 280.874482 270.873396 
L 272.190909 270.873396 
z
" style="fill:#fa7f6f;"/>
   </g>
   <g id="patch_43">
    <path clip-path="url(#p202cd552fa)" d="M 297.001116 1486.624 
L 305.684689 1486.624 
L 305.684689 266.285379 
L 297.001116 266.285379 
z
" style="fill:#fa7f6f;"/>
   </g>
   <g id="patch_44">
    <path clip-path="url(#p202cd552fa)" d="M 321.811324 1486.624 
L 330.494896 1486.624 
L 330.494896 243.345293 
L 321.811324 243.345293 
z
" style="fill:#fa7f6f;"/>
   </g>
   <g id="patch_45">
    <path clip-path="url(#p202cd552fa)" d="M 346.621531 1486.624 
L 355.305104 1486.624 
L 355.305104 215.74608 
L 346.621531 215.74608 
z
" style="fill:#fa7f6f;"/>
   </g>
   <g id="patch_46">
    <path clip-path="url(#p202cd552fa)" d="M 371.431738 1486.624 
L 380.115311 1486.624 
L 380.115311 263.224805 
L 371.431738 263.224805 
z
" style="fill:#fa7f6f;"/>
   </g>
   <g id="patch_47">
    <path clip-path="url(#p202cd552fa)" d="M 396.241946 1486.624 
L 404.925518 1486.624 
L 404.925518 272.400839 
L 396.241946 272.400839 
z
" style="fill:#fa7f6f;"/>
   </g>
   <g id="matplotlib.axis_7">
    <g id="xtick_19">
     <g id="line2d_31">
      <g>
       <use style="stroke:#000000;stroke-width:0.8;" x="280.874482" xlink:href="#m2d400e1005" y="291.976"/>
      </g>
     </g>
     <g id="text_37">
      <!-- 10 -->
      <g transform="translate(274.511982 306.574437)scale(0.1 -0.1)">
       <use xlink:href="#DejaVuSans-49"/>
       <use x="63.623047" xlink:href="#DejaVuSans-48"/>
      </g>
     </g>
    </g>
    <g id="xtick_20">
     <g id="line2d_32">
      <g>
       <use style="stroke:#000000;stroke-width:0.8;" x="305.684689" xlink:href="#m2d400e1005" y="291.976"/>
      </g>
     </g>
     <g id="text_38">
      <!-- 20 -->
      <g transform="translate(299.322189 306.574437)scale(0.1 -0.1)">
       <use xlink:href="#DejaVuSans-50"/>
       <use x="63.623047" xlink:href="#DejaVuSans-48"/>
      </g>
     </g>
    </g>
    <g id="xtick_21">
     <g id="line2d_33">
      <g>
       <use style="stroke:#000000;stroke-width:0.8;" x="330.494896" xlink:href="#m2d400e1005" y="291.976"/>
      </g>
     </g>
     <g id="text_39">
      <!-- 30 -->
      <g transform="translate(324.132396 306.574437)scale(0.1 -0.1)">
       <use xlink:href="#DejaVuSans-51"/>
       <use x="63.623047" xlink:href="#DejaVuSans-48"/>
      </g>
     </g>
    </g>
    <g id="xtick_22">
     <g id="line2d_34">
      <g>
       <use style="stroke:#000000;stroke-width:0.8;" x="355.305104" xlink:href="#m2d400e1005" y="291.976"/>
      </g>
     </g>
     <g id="text_40">
      <!-- 40 -->
      <g transform="translate(348.942604 306.574437)scale(0.1 -0.1)">
       <use xlink:href="#DejaVuSans-52"/>
       <use x="63.623047" xlink:href="#DejaVuSans-48"/>
      </g>
     </g>
    </g>
    <g id="xtick_23">
     <g id="line2d_35">
      <g>
       <use style="stroke:#000000;stroke-width:0.8;" x="380.115311" xlink:href="#m2d400e1005" y="291.976"/>
      </g>
     </g>
     <g id="text_41">
      <!-- 50 -->
      <g transform="translate(373.752811 306.574437)scale(0.1 -0.1)">
       <use xlink:href="#DejaVuSans-53"/>
       <use x="63.623047" xlink:href="#DejaVuSans-48"/>
      </g>
     </g>
    </g>
    <g id="xtick_24">
     <g id="line2d_36">
      <g>
       <use style="stroke:#000000;stroke-width:0.8;" x="404.925518" xlink:href="#m2d400e1005" y="291.976"/>
      </g>
     </g>
     <g id="text_42">
      <!-- 60 -->
      <g transform="translate(398.563018 306.574437)scale(0.1 -0.1)">
       <use xlink:href="#DejaVuSans-54"/>
       <use x="63.623047" xlink:href="#DejaVuSans-48"/>
      </g>
     </g>
    </g>
    <g id="text_43">
     <!-- (d) Sub-distribution Analysis  -->
     <g transform="translate(270.642969 320.252562)scale(0.1 -0.1)">
      <use xlink:href="#DejaVuSans-40"/>
      <use x="39.013672" xlink:href="#DejaVuSans-100"/>
      <use x="102.490234" xlink:href="#DejaVuSans-41"/>
      <use x="141.503906" xlink:href="#DejaVuSans-32"/>
      <use x="173.291016" xlink:href="#DejaVuSans-83"/>
      <use x="236.767578" xlink:href="#DejaVuSans-117"/>
      <use x="300.146484" xlink:href="#DejaVuSans-98"/>
      <use x="363.623047" xlink:href="#DejaVuSans-45"/>
      <use x="399.707031" xlink:href="#DejaVuSans-100"/>
      <use x="463.183594" xlink:href="#DejaVuSans-105"/>
      <use x="490.966797" xlink:href="#DejaVuSans-115"/>
      <use x="543.066406" xlink:href="#DejaVuSans-116"/>
      <use x="582.275391" xlink:href="#DejaVuSans-114"/>
      <use x="623.388672" xlink:href="#DejaVuSans-105"/>
      <use x="651.171875" xlink:href="#DejaVuSans-98"/>
      <use x="714.648438" xlink:href="#DejaVuSans-117"/>
      <use x="778.027344" xlink:href="#DejaVuSans-116"/>
      <use x="817.236328" xlink:href="#DejaVuSans-105"/>
      <use x="845.019531" xlink:href="#DejaVuSans-111"/>
      <use x="906.201172" xlink:href="#DejaVuSans-110"/>
      <use x="969.580078" xlink:href="#DejaVuSans-32"/>
      <use x="1001.367188" xlink:href="#DejaVuSans-65"/>
      <use x="1069.775391" xlink:href="#DejaVuSans-110"/>
      <use x="1133.154297" xlink:href="#DejaVuSans-97"/>
      <use x="1194.433594" xlink:href="#DejaVuSans-108"/>
      <use x="1222.216797" xlink:href="#DejaVuSans-121"/>
      <use x="1281.396484" xlink:href="#DejaVuSans-115"/>
      <use x="1333.496094" xlink:href="#DejaVuSans-105"/>
      <use x="1361.279297" xlink:href="#DejaVuSans-115"/>
      <use x="1413.378906" xlink:href="#DejaVuSans-32"/>
     </g>
     <!--  on Book-Movie HR@10 -->
     <g transform="translate(284.260937 331.450375)scale(0.1 -0.1)">
      <use xlink:href="#DejaVuSans-32"/>
      <use x="31.787109" xlink:href="#DejaVuSans-111"/>
      <use x="92.96875" xlink:href="#DejaVuSans-110"/>
      <use x="156.347656" xlink:href="#DejaVuSans-32"/>
      <use x="188.134766" xlink:href="#DejaVuSans-66"/>
      <use x="256.738281" xlink:href="#DejaVuSans-111"/>
      <use x="317.919922" xlink:href="#DejaVuSans-111"/>
      <use x="379.101562" xlink:href="#DejaVuSans-107"/>
      <use x="437.011719" xlink:href="#DejaVuSans-45"/>
      <use x="473.095703" xlink:href="#DejaVuSans-77"/>
      <use x="559.375" xlink:href="#DejaVuSans-111"/>
      <use x="620.556641" xlink:href="#DejaVuSans-118"/>
      <use x="679.736328" xlink:href="#DejaVuSans-105"/>
      <use x="707.519531" xlink:href="#DejaVuSans-101"/>
      <use x="769.042969" xlink:href="#DejaVuSans-32"/>
      <use x="800.830078" xlink:href="#DejaVuSans-72"/>
      <use x="876.025391" xlink:href="#DejaVuSans-82"/>
      <use x="945.507812" xlink:href="#DejaVuSans-64"/>
      <use x="1045.507812" xlink:href="#DejaVuSans-49"/>
      <use x="1109.130859" xlink:href="#DejaVuSans-48"/>
     </g>
    </g>
   </g>
   <g id="matplotlib.axis_8">
    <g id="ytick_13">
     <g id="line2d_37">
      <g>
       <use style="stroke:#000000;stroke-width:0.8;" x="265.12" xlink:href="#m3ab7987c6e" y="291.976"/>
      </g>
     </g>
     <g id="text_44">
      <!-- 0.42 -->
      <g transform="translate(235.854375 295.775219)scale(0.1 -0.1)">
       <use xlink:href="#DejaVuSans-48"/>
       <use x="63.623047" xlink:href="#DejaVuSans-46"/>
       <use x="95.410156" xlink:href="#DejaVuSans-52"/>
       <use x="159.033203" xlink:href="#DejaVuSans-50"/>
      </g>
     </g>
    </g>
    <g id="ytick_14">
     <g id="line2d_38">
      <g>
       <use style="stroke:#000000;stroke-width:0.8;" x="265.12" xlink:href="#m3ab7987c6e" y="263.532"/>
      </g>
     </g>
     <g id="text_45">
      <!-- 0.43 -->
      <g transform="translate(235.854375 267.331219)scale(0.1 -0.1)">
       <use xlink:href="#DejaVuSans-48"/>
       <use x="63.623047" xlink:href="#DejaVuSans-46"/>
       <use x="95.410156" xlink:href="#DejaVuSans-52"/>
       <use x="159.033203" xlink:href="#DejaVuSans-51"/>
      </g>
     </g>
    </g>
    <g id="ytick_15">
     <g id="line2d_39">
      <g>
       <use style="stroke:#000000;stroke-width:0.8;" x="265.12" xlink:href="#m3ab7987c6e" y="235.088"/>
      </g>
     </g>
     <g id="text_46">
      <!-- 0.44 -->
      <g transform="translate(235.854375 238.887219)scale(0.1 -0.1)">
       <use xlink:href="#DejaVuSans-48"/>
       <use x="63.623047" xlink:href="#DejaVuSans-46"/>
       <use x="95.410156" xlink:href="#DejaVuSans-52"/>
       <use x="159.033203" xlink:href="#DejaVuSans-52"/>
      </g>
     </g>
    </g>
    <g id="ytick_16">
     <g id="line2d_40">
      <g>
       <use style="stroke:#000000;stroke-width:0.8;" x="265.12" xlink:href="#m3ab7987c6e" y="206.644"/>
      </g>
     </g>
     <g id="text_47">
      <!-- 0.45 -->
      <g transform="translate(235.854375 210.443219)scale(0.1 -0.1)">
       <use xlink:href="#DejaVuSans-48"/>
       <use x="63.623047" xlink:href="#DejaVuSans-46"/>
       <use x="95.410156" xlink:href="#DejaVuSans-52"/>
       <use x="159.033203" xlink:href="#DejaVuSans-53"/>
      </g>
     </g>
    </g>
   </g>
   <g id="patch_48">
    <path d="M 265.12 291.976 
L 265.12 178.2 
" style="fill:none;stroke:#000000;stroke-linecap:square;stroke-linejoin:miter;stroke-width:0.8;"/>
   </g>
   <g id="patch_49">
    <path d="M 420.68 291.976 
L 420.68 178.2 
" style="fill:none;stroke:#000000;stroke-linecap:square;stroke-linejoin:miter;stroke-width:0.8;"/>
   </g>
   <g id="patch_50">
    <path d="M 265.12 291.976 
L 420.68 291.976 
" style="fill:none;stroke:#000000;stroke-linecap:square;stroke-linejoin:miter;stroke-width:0.8;"/>
   </g>
   <g id="patch_51">
    <path d="M 265.12 178.2 
L 420.68 178.2 
" style="fill:none;stroke:#000000;stroke-linecap:square;stroke-linejoin:miter;stroke-width:0.8;"/>
   </g>
   <g id="legend_4">
    <g id="patch_52">
     <path d="M 270.72 196.3425 
L 316.23125 196.3425 
Q 317.83125 196.3425 317.83125 194.7425 
L 317.83125 183.8 
Q 317.83125 182.2 316.23125 182.2 
L 270.72 182.2 
Q 269.12 182.2 269.12 183.8 
L 269.12 194.7425 
Q 269.12 196.3425 270.72 196.3425 
z
" style="fill:#ffffff;opacity:0.8;stroke:#cccccc;stroke-linejoin:miter;"/>
    </g>
    <g id="patch_53">
     <path d="M 272.32 191.47875 
L 288.32 191.47875 
L 288.32 185.87875 
L 272.32 185.87875 
z
" style="fill:#fa7f6f;"/>
    </g>
    <g id="text_48">
     <!-- Book -->
     <g transform="translate(294.72 191.47875)scale(0.08 -0.08)">
      <use xlink:href="#DejaVuSans-66"/>
      <use x="68.603516" xlink:href="#DejaVuSans-111"/>
      <use x="129.785156" xlink:href="#DejaVuSans-111"/>
      <use x="190.966797" xlink:href="#DejaVuSans-107"/>
     </g>
    </g>
   </g>
  </g>
  <g id="axes_5">
   <g id="patch_54">
    <path clip-path="url(#p935fe311d5)" d="M 55.874482 1233.892 
L 64.558054 1233.892 
L 64.558054 122.129816 
L 55.874482 122.129816 
z
" style="fill:#beb8dc;"/>
   </g>
   <g id="patch_55">
    <path clip-path="url(#p935fe311d5)" d="M 80.684689 1233.892 
L 89.368262 1233.892 
L 89.368262 90.013696 
L 80.684689 90.013696 
z
" style="fill:#beb8dc;"/>
   </g>
   <g id="patch_56">
    <path clip-path="url(#p935fe311d5)" d="M 105.494896 1233.892 
L 114.178469 1233.892 
L 114.178469 83.898236 
L 105.494896 83.898236 
z
" style="fill:#beb8dc;"/>
   </g>
   <g id="patch_57">
    <path clip-path="url(#p935fe311d5)" d="M 130.305104 1233.892 
L 138.988676 1233.892 
L 138.988676 24.16868 
L 130.305104 24.16868 
z
" style="fill:#beb8dc;"/>
   </g>
   <g id="patch_58">
    <path clip-path="url(#p935fe311d5)" d="M 155.115311 1233.892 
L 163.798884 1233.892 
L 163.798884 47.196942 
L 155.115311 47.196942 
z
" style="fill:#beb8dc;"/>
   </g>
   <g id="patch_59">
    <path clip-path="url(#p935fe311d5)" d="M 179.925518 1233.892 
L 188.609091 1233.892 
L 188.609091 68.606741 
L 179.925518 68.606741 
z
" style="fill:#beb8dc;"/>
   </g>
   <g id="matplotlib.axis_9">
    <g id="ytick_17">
     <g id="line2d_41">
      <defs>
       <path d="M 0 0 
L 3.5 0 
" id="m3f72331a03" style="stroke:#000000;stroke-width:0.8;"/>
      </defs>
      <g>
       <use style="stroke:#000000;stroke-width:0.8;" x="195.68" xlink:href="#m3f72331a03" y="124.576"/>
      </g>
     </g>
     <g id="text_49">
      <!-- 0.39 -->
      <defs>
       <path d="M 10.984375 1.515625 
L 10.984375 10.5 
Q 14.703125 8.734375 18.5 7.8125 
Q 22.3125 6.890625 25.984375 6.890625 
Q 35.75 6.890625 40.890625 13.453125 
Q 46.046875 20.015625 46.78125 33.40625 
Q 43.953125 29.203125 39.59375 26.953125 
Q 35.25 24.703125 29.984375 24.703125 
Q 19.046875 24.703125 12.671875 31.3125 
Q 6.296875 37.9375 6.296875 49.421875 
Q 6.296875 60.640625 12.9375 67.421875 
Q 19.578125 74.21875 30.609375 74.21875 
Q 43.265625 74.21875 49.921875 64.515625 
Q 56.59375 54.828125 56.59375 36.375 
Q 56.59375 19.140625 48.40625 8.859375 
Q 40.234375 -1.421875 26.421875 -1.421875 
Q 22.703125 -1.421875 18.890625 -0.6875 
Q 15.09375 0.046875 10.984375 1.515625 
z
M 30.609375 32.421875 
Q 37.25 32.421875 41.125 36.953125 
Q 45.015625 41.5 45.015625 49.421875 
Q 45.015625 57.28125 41.125 61.84375 
Q 37.25 66.40625 30.609375 66.40625 
Q 23.96875 66.40625 20.09375 61.84375 
Q 16.21875 57.28125 16.21875 49.421875 
Q 16.21875 41.5 20.09375 36.953125 
Q 23.96875 32.421875 30.609375 32.421875 
z
" id="DejaVuSans-57"/>
      </defs>
      <g transform="translate(202.68 128.375219)scale(0.1 -0.1)">
       <use xlink:href="#DejaVuSans-48"/>
       <use x="63.623047" xlink:href="#DejaVuSans-46"/>
       <use x="95.410156" xlink:href="#DejaVuSans-51"/>
       <use x="159.033203" xlink:href="#DejaVuSans-57"/>
      </g>
     </g>
    </g>
    <g id="ytick_18">
     <g id="line2d_42">
      <g>
       <use style="stroke:#000000;stroke-width:0.8;" x="195.68" xlink:href="#m3f72331a03" y="96.132"/>
      </g>
     </g>
     <g id="text_50">
      <!-- 0.40 -->
      <g transform="translate(202.68 99.931219)scale(0.1 -0.1)">
       <use xlink:href="#DejaVuSans-48"/>
       <use x="63.623047" xlink:href="#DejaVuSans-46"/>
       <use x="95.410156" xlink:href="#DejaVuSans-52"/>
       <use x="159.033203" xlink:href="#DejaVuSans-48"/>
      </g>
     </g>
    </g>
    <g id="ytick_19">
     <g id="line2d_43">
      <g>
       <use style="stroke:#000000;stroke-width:0.8;" x="195.68" xlink:href="#m3f72331a03" y="67.688"/>
      </g>
     </g>
     <g id="text_51">
      <!-- 0.41 -->
      <g transform="translate(202.68 71.487219)scale(0.1 -0.1)">
       <use xlink:href="#DejaVuSans-48"/>
       <use x="63.623047" xlink:href="#DejaVuSans-46"/>
       <use x="95.410156" xlink:href="#DejaVuSans-52"/>
       <use x="159.033203" xlink:href="#DejaVuSans-49"/>
      </g>
     </g>
    </g>
    <g id="ytick_20">
     <g id="line2d_44">
      <g>
       <use style="stroke:#000000;stroke-width:0.8;" x="195.68" xlink:href="#m3f72331a03" y="39.244"/>
      </g>
     </g>
     <g id="text_52">
      <!-- 0.42 -->
      <g transform="translate(202.68 43.043219)scale(0.1 -0.1)">
       <use xlink:href="#DejaVuSans-48"/>
       <use x="63.623047" xlink:href="#DejaVuSans-46"/>
       <use x="95.410156" xlink:href="#DejaVuSans-52"/>
       <use x="159.033203" xlink:href="#DejaVuSans-50"/>
      </g>
     </g>
    </g>
   </g>
   <g id="patch_60">
    <path d="M 40.12 124.576 
L 40.12 10.8 
" style="fill:none;stroke:#000000;stroke-linecap:square;stroke-linejoin:miter;stroke-width:0.8;"/>
   </g>
   <g id="patch_61">
    <path d="M 195.68 124.576 
L 195.68 10.8 
" style="fill:none;stroke:#000000;stroke-linecap:square;stroke-linejoin:miter;stroke-width:0.8;"/>
   </g>
   <g id="patch_62">
    <path d="M 40.12 124.576 
L 195.68 124.576 
" style="fill:none;stroke:#000000;stroke-linecap:square;stroke-linejoin:miter;stroke-width:0.8;"/>
   </g>
   <g id="patch_63">
    <path d="M 40.12 10.8 
L 195.68 10.8 
" style="fill:none;stroke:#000000;stroke-linecap:square;stroke-linejoin:miter;stroke-width:0.8;"/>
   </g>
   <g id="legend_5">
    <g id="patch_64">
     <path d="M 141.71875 28.9425 
L 190.08 28.9425 
Q 191.68 28.9425 191.68 27.3425 
L 191.68 16.4 
Q 191.68 14.8 190.08 14.8 
L 141.71875 14.8 
Q 140.11875 14.8 140.11875 16.4 
L 140.11875 27.3425 
Q 140.11875 28.9425 141.71875 28.9425 
z
" style="fill:#ffffff;opacity:0.8;stroke:#cccccc;stroke-linejoin:miter;"/>
    </g>
    <g id="patch_65">
     <path d="M 143.31875 24.07875 
L 159.31875 24.07875 
L 159.31875 18.47875 
L 143.31875 18.47875 
z
" style="fill:#beb8dc;"/>
    </g>
    <g id="text_53">
     <!-- Music -->
     <g transform="translate(165.71875 24.07875)scale(0.08 -0.08)">
      <use xlink:href="#DejaVuSans-77"/>
      <use x="86.279297" xlink:href="#DejaVuSans-117"/>
      <use x="149.658203" xlink:href="#DejaVuSans-115"/>
      <use x="201.757812" xlink:href="#DejaVuSans-105"/>
      <use x="229.541016" xlink:href="#DejaVuSans-99"/>
     </g>
    </g>
   </g>
  </g>
  <g id="axes_6">
   <g id="patch_66">
    <path clip-path="url(#pe02be27019)" d="M 280.874482 1262.336 
L 289.558054 1262.336 
L 289.558054 67.585602 
L 280.874482 67.585602 
z
" style="fill:#beb8dc;"/>
   </g>
   <g id="patch_67">
    <path clip-path="url(#pe02be27019)" d="M 305.684689 1262.336 
L 314.368262 1262.336 
L 314.368262 66.658327 
L 305.684689 66.658327 
z
" style="fill:#beb8dc;"/>
   </g>
   <g id="patch_68">
    <path clip-path="url(#pe02be27019)" d="M 330.494896 1262.336 
L 339.178469 1262.336 
L 339.178469 66.672549 
L 330.494896 66.672549 
z
" style="fill:#beb8dc;"/>
   </g>
   <g id="patch_69">
    <path clip-path="url(#pe02be27019)" d="M 355.305104 1262.336 
L 363.988676 1262.336 
L 363.988676 37.53736 
L 355.305104 37.53736 
z
" style="fill:#beb8dc;"/>
   </g>
   <g id="patch_70">
    <path clip-path="url(#pe02be27019)" d="M 380.115311 1262.336 
L 388.798884 1262.336 
L 388.798884 54.398963 
L 380.115311 54.398963 
z
" style="fill:#beb8dc;"/>
   </g>
   <g id="patch_71">
    <path clip-path="url(#pe02be27019)" d="M 404.925518 1262.336 
L 413.609091 1262.336 
L 413.609091 58.785028 
L 404.925518 58.785028 
z
" style="fill:#beb8dc;"/>
   </g>
   <g id="matplotlib.axis_10">
    <g id="ytick_21">
     <g id="line2d_45">
      <g>
       <use style="stroke:#000000;stroke-width:0.8;" x="420.68" xlink:href="#m3f72331a03" y="124.576"/>
      </g>
     </g>
     <g id="text_54">
      <!-- 0.40 -->
      <g transform="translate(427.68 128.375219)scale(0.1 -0.1)">
       <use xlink:href="#DejaVuSans-48"/>
       <use x="63.623047" xlink:href="#DejaVuSans-46"/>
       <use x="95.410156" xlink:href="#DejaVuSans-52"/>
       <use x="159.033203" xlink:href="#DejaVuSans-48"/>
      </g>
     </g>
    </g>
    <g id="ytick_22">
     <g id="line2d_46">
      <g>
       <use style="stroke:#000000;stroke-width:0.8;" x="420.68" xlink:href="#m3f72331a03" y="96.132"/>
      </g>
     </g>
     <g id="text_55">
      <!-- 0.41 -->
      <g transform="translate(427.68 99.931219)scale(0.1 -0.1)">
       <use xlink:href="#DejaVuSans-48"/>
       <use x="63.623047" xlink:href="#DejaVuSans-46"/>
       <use x="95.410156" xlink:href="#DejaVuSans-52"/>
       <use x="159.033203" xlink:href="#DejaVuSans-49"/>
      </g>
     </g>
    </g>
    <g id="ytick_23">
     <g id="line2d_47">
      <g>
       <use style="stroke:#000000;stroke-width:0.8;" x="420.68" xlink:href="#m3f72331a03" y="67.688"/>
      </g>
     </g>
     <g id="text_56">
      <!-- 0.42 -->
      <g transform="translate(427.68 71.487219)scale(0.1 -0.1)">
       <use xlink:href="#DejaVuSans-48"/>
       <use x="63.623047" xlink:href="#DejaVuSans-46"/>
       <use x="95.410156" xlink:href="#DejaVuSans-52"/>
       <use x="159.033203" xlink:href="#DejaVuSans-50"/>
      </g>
     </g>
    </g>
    <g id="ytick_24">
     <g id="line2d_48">
      <g>
       <use style="stroke:#000000;stroke-width:0.8;" x="420.68" xlink:href="#m3f72331a03" y="39.244"/>
      </g>
     </g>
     <g id="text_57">
      <!-- 0.43 -->
      <g transform="translate(427.68 43.043219)scale(0.1 -0.1)">
       <use xlink:href="#DejaVuSans-48"/>
       <use x="63.623047" xlink:href="#DejaVuSans-46"/>
       <use x="95.410156" xlink:href="#DejaVuSans-52"/>
       <use x="159.033203" xlink:href="#DejaVuSans-51"/>
      </g>
     </g>
    </g>
   </g>
   <g id="patch_72">
    <path d="M 265.12 124.576 
L 265.12 10.8 
" style="fill:none;stroke:#000000;stroke-linecap:square;stroke-linejoin:miter;stroke-width:0.8;"/>
   </g>
   <g id="patch_73">
    <path d="M 420.68 124.576 
L 420.68 10.8 
" style="fill:none;stroke:#000000;stroke-linecap:square;stroke-linejoin:miter;stroke-width:0.8;"/>
   </g>
   <g id="patch_74">
    <path d="M 265.12 124.576 
L 420.68 124.576 
" style="fill:none;stroke:#000000;stroke-linecap:square;stroke-linejoin:miter;stroke-width:0.8;"/>
   </g>
   <g id="patch_75">
    <path d="M 265.12 10.8 
L 420.68 10.8 
" style="fill:none;stroke:#000000;stroke-linecap:square;stroke-linejoin:miter;stroke-width:0.8;"/>
   </g>
   <g id="legend_6">
    <g id="patch_76">
     <path d="M 365.8025 28.9425 
L 415.08 28.9425 
Q 416.68 28.9425 416.68 27.3425 
L 416.68 16.4 
Q 416.68 14.8 415.08 14.8 
L 365.8025 14.8 
Q 364.2025 14.8 364.2025 16.4 
L 364.2025 27.3425 
Q 364.2025 28.9425 365.8025 28.9425 
z
" style="fill:#ffffff;opacity:0.8;stroke:#cccccc;stroke-linejoin:miter;"/>
    </g>
    <g id="patch_77">
     <path d="M 367.4025 24.07875 
L 383.4025 24.07875 
L 383.4025 18.47875 
L 367.4025 18.47875 
z
" style="fill:#beb8dc;"/>
    </g>
    <g id="text_58">
     <!-- Movie -->
     <g transform="translate(389.8025 24.07875)scale(0.08 -0.08)">
      <use xlink:href="#DejaVuSans-77"/>
      <use x="86.279297" xlink:href="#DejaVuSans-111"/>
      <use x="147.460938" xlink:href="#DejaVuSans-118"/>
      <use x="206.640625" xlink:href="#DejaVuSans-105"/>
      <use x="234.423828" xlink:href="#DejaVuSans-101"/>
     </g>
    </g>
   </g>
  </g>
  <g id="axes_7">
   <g id="patch_78">
    <path clip-path="url(#pa4be3447e7)" d="M 55.874482 1401.292 
L 64.558054 1401.292 
L 64.558054 272.969719 
L 55.874482 272.969719 
z
" style="fill:#beb8dc;"/>
   </g>
   <g id="patch_79">
    <path clip-path="url(#pa4be3447e7)" d="M 80.684689 1401.292 
L 89.368262 1401.292 
L 89.368262 264.391009 
L 80.684689 264.391009 
z
" style="fill:#beb8dc;"/>
   </g>
   <g id="patch_80">
    <path clip-path="url(#pa4be3447e7)" d="M 105.494896 1401.292 
L 114.178469 1401.292 
L 114.178469 270.825042 
L 105.494896 270.825042 
z
" style="fill:#beb8dc;"/>
   </g>
   <g id="patch_81">
    <path clip-path="url(#pa4be3447e7)" d="M 130.305104 1401.292 
L 138.988676 1401.292 
L 138.988676 210.62616 
L 130.305104 210.62616 
z
" style="fill:#beb8dc;"/>
   </g>
   <g id="patch_82">
    <path clip-path="url(#pa4be3447e7)" d="M 155.115311 1401.292 
L 163.798884 1401.292 
L 163.798884 221.488924 
L 155.115311 221.488924 
z
" style="fill:#beb8dc;"/>
   </g>
   <g id="patch_83">
    <path clip-path="url(#pa4be3447e7)" d="M 179.925518 1401.292 
L 188.609091 1401.292 
L 188.609091 240.793866 
L 179.925518 240.793866 
z
" style="fill:#beb8dc;"/>
   </g>
   <g id="matplotlib.axis_11">
    <g id="ytick_25">
     <g id="line2d_49">
      <g>
       <use style="stroke:#000000;stroke-width:0.8;" x="195.68" xlink:href="#m3f72331a03" y="291.976"/>
      </g>
     </g>
     <g id="text_59">
      <!-- 0.39 -->
      <g transform="translate(202.68 295.775219)scale(0.1 -0.1)">
       <use xlink:href="#DejaVuSans-48"/>
       <use x="63.623047" xlink:href="#DejaVuSans-46"/>
       <use x="95.410156" xlink:href="#DejaVuSans-51"/>
       <use x="159.033203" xlink:href="#DejaVuSans-57"/>
      </g>
     </g>
    </g>
    <g id="ytick_26">
     <g id="line2d_50">
      <g>
       <use style="stroke:#000000;stroke-width:0.8;" x="195.68" xlink:href="#m3f72331a03" y="263.532"/>
      </g>
     </g>
     <g id="text_60">
      <!-- 0.40 -->
      <g transform="translate(202.68 267.331219)scale(0.1 -0.1)">
       <use xlink:href="#DejaVuSans-48"/>
       <use x="63.623047" xlink:href="#DejaVuSans-46"/>
       <use x="95.410156" xlink:href="#DejaVuSans-52"/>
       <use x="159.033203" xlink:href="#DejaVuSans-48"/>
      </g>
     </g>
    </g>
    <g id="ytick_27">
     <g id="line2d_51">
      <g>
       <use style="stroke:#000000;stroke-width:0.8;" x="195.68" xlink:href="#m3f72331a03" y="235.088"/>
      </g>
     </g>
     <g id="text_61">
      <!-- 0.41 -->
      <g transform="translate(202.68 238.887219)scale(0.1 -0.1)">
       <use xlink:href="#DejaVuSans-48"/>
       <use x="63.623047" xlink:href="#DejaVuSans-46"/>
       <use x="95.410156" xlink:href="#DejaVuSans-52"/>
       <use x="159.033203" xlink:href="#DejaVuSans-49"/>
      </g>
     </g>
    </g>
    <g id="ytick_28">
     <g id="line2d_52">
      <g>
       <use style="stroke:#000000;stroke-width:0.8;" x="195.68" xlink:href="#m3f72331a03" y="206.644"/>
      </g>
     </g>
     <g id="text_62">
      <!-- 0.42 -->
      <g transform="translate(202.68 210.443219)scale(0.1 -0.1)">
       <use xlink:href="#DejaVuSans-48"/>
       <use x="63.623047" xlink:href="#DejaVuSans-46"/>
       <use x="95.410156" xlink:href="#DejaVuSans-52"/>
       <use x="159.033203" xlink:href="#DejaVuSans-50"/>
      </g>
     </g>
    </g>
   </g>
   <g id="patch_84">
    <path d="M 40.12 291.976 
L 40.12 178.2 
" style="fill:none;stroke:#000000;stroke-linecap:square;stroke-linejoin:miter;stroke-width:0.8;"/>
   </g>
   <g id="patch_85">
    <path d="M 195.68 291.976 
L 195.68 178.2 
" style="fill:none;stroke:#000000;stroke-linecap:square;stroke-linejoin:miter;stroke-width:0.8;"/>
   </g>
   <g id="patch_86">
    <path d="M 40.12 291.976 
L 195.68 291.976 
" style="fill:none;stroke:#000000;stroke-linecap:square;stroke-linejoin:miter;stroke-width:0.8;"/>
   </g>
   <g id="patch_87">
    <path d="M 40.12 178.2 
L 195.68 178.2 
" style="fill:none;stroke:#000000;stroke-linecap:square;stroke-linejoin:miter;stroke-width:0.8;"/>
   </g>
   <g id="legend_7">
    <g id="patch_88">
     <path d="M 141.71875 196.3425 
L 190.08 196.3425 
Q 191.68 196.3425 191.68 194.7425 
L 191.68 183.8 
Q 191.68 182.2 190.08 182.2 
L 141.71875 182.2 
Q 140.11875 182.2 140.11875 183.8 
L 140.11875 194.7425 
Q 140.11875 196.3425 141.71875 196.3425 
z
" style="fill:#ffffff;opacity:0.8;stroke:#cccccc;stroke-linejoin:miter;"/>
    </g>
    <g id="patch_89">
     <path d="M 143.31875 191.47875 
L 159.31875 191.47875 
L 159.31875 185.87875 
L 143.31875 185.87875 
z
" style="fill:#beb8dc;"/>
    </g>
    <g id="text_63">
     <!-- Music -->
     <g transform="translate(165.71875 191.47875)scale(0.08 -0.08)">
      <use xlink:href="#DejaVuSans-77"/>
      <use x="86.279297" xlink:href="#DejaVuSans-117"/>
      <use x="149.658203" xlink:href="#DejaVuSans-115"/>
      <use x="201.757812" xlink:href="#DejaVuSans-105"/>
      <use x="229.541016" xlink:href="#DejaVuSans-99"/>
     </g>
    </g>
   </g>
  </g>
  <g id="axes_8">
   <g id="patch_90">
    <path clip-path="url(#p202cd552fa)" d="M 280.874482 2325.722 
L 289.558054 2325.722 
L 289.558054 250.282785 
L 280.874482 250.282785 
z
" style="fill:#beb8dc;"/>
   </g>
   <g id="patch_91">
    <path clip-path="url(#p202cd552fa)" d="M 305.684689 2325.722 
L 314.368262 2325.722 
L 314.368262 245.956452 
L 305.684689 245.956452 
z
" style="fill:#beb8dc;"/>
   </g>
   <g id="patch_92">
    <path clip-path="url(#p202cd552fa)" d="M 330.494896 2325.722 
L 339.178469 2325.722 
L 339.178469 232.9803 
L 330.494896 232.9803 
z
" style="fill:#beb8dc;"/>
   </g>
   <g id="patch_93">
    <path clip-path="url(#p202cd552fa)" d="M 355.305104 2325.722 
L 363.988676 2325.722 
L 363.988676 212.3328 
L 355.305104 212.3328 
z
" style="fill:#beb8dc;"/>
   </g>
   <g id="patch_94">
    <path clip-path="url(#p202cd552fa)" d="M 380.115311 2325.722 
L 388.798884 2325.722 
L 388.798884 232.9803 
L 380.115311 232.9803 
z
" style="fill:#beb8dc;"/>
   </g>
   <g id="patch_95">
    <path clip-path="url(#p202cd552fa)" d="M 404.925518 2325.722 
L 413.609091 2325.722 
L 413.609091 224.327635 
L 404.925518 224.327635 
z
" style="fill:#beb8dc;"/>
   </g>
   <g id="matplotlib.axis_12">
    <g id="ytick_29">
     <g id="line2d_53">
      <g>
       <use style="stroke:#000000;stroke-width:0.8;" x="420.68" xlink:href="#m3f72331a03" y="277.754"/>
      </g>
     </g>
     <g id="text_64">
      <!-- 0.72 -->
      <defs>
       <path d="M 8.203125 72.90625 
L 55.078125 72.90625 
L 55.078125 68.703125 
L 28.609375 0 
L 18.3125 0 
L 43.21875 64.59375 
L 8.203125 64.59375 
z
" id="DejaVuSans-55"/>
      </defs>
      <g transform="translate(427.68 281.553219)scale(0.1 -0.1)">
       <use xlink:href="#DejaVuSans-48"/>
       <use x="63.623047" xlink:href="#DejaVuSans-46"/>
       <use x="95.410156" xlink:href="#DejaVuSans-55"/>
       <use x="159.033203" xlink:href="#DejaVuSans-50"/>
      </g>
     </g>
    </g>
    <g id="ytick_30">
     <g id="line2d_54">
      <g>
       <use style="stroke:#000000;stroke-width:0.8;" x="420.68" xlink:href="#m3f72331a03" y="249.31"/>
      </g>
     </g>
     <g id="text_65">
      <!-- 0.73 -->
      <g transform="translate(427.68 253.109219)scale(0.1 -0.1)">
       <use xlink:href="#DejaVuSans-48"/>
       <use x="63.623047" xlink:href="#DejaVuSans-46"/>
       <use x="95.410156" xlink:href="#DejaVuSans-55"/>
       <use x="159.033203" xlink:href="#DejaVuSans-51"/>
      </g>
     </g>
    </g>
    <g id="ytick_31">
     <g id="line2d_55">
      <g>
       <use style="stroke:#000000;stroke-width:0.8;" x="420.68" xlink:href="#m3f72331a03" y="220.866"/>
      </g>
     </g>
     <g id="text_66">
      <!-- 0.74 -->
      <g transform="translate(427.68 224.665219)scale(0.1 -0.1)">
       <use xlink:href="#DejaVuSans-48"/>
       <use x="63.623047" xlink:href="#DejaVuSans-46"/>
       <use x="95.410156" xlink:href="#DejaVuSans-55"/>
       <use x="159.033203" xlink:href="#DejaVuSans-52"/>
      </g>
     </g>
    </g>
    <g id="ytick_32">
     <g id="line2d_56">
      <g>
       <use style="stroke:#000000;stroke-width:0.8;" x="420.68" xlink:href="#m3f72331a03" y="192.422"/>
      </g>
     </g>
     <g id="text_67">
      <!-- 0.75 -->
      <g transform="translate(427.68 196.221219)scale(0.1 -0.1)">
       <use xlink:href="#DejaVuSans-48"/>
       <use x="63.623047" xlink:href="#DejaVuSans-46"/>
       <use x="95.410156" xlink:href="#DejaVuSans-55"/>
       <use x="159.033203" xlink:href="#DejaVuSans-53"/>
      </g>
     </g>
    </g>
   </g>
   <g id="patch_96">
    <path d="M 265.12 291.976 
L 265.12 178.2 
" style="fill:none;stroke:#000000;stroke-linecap:square;stroke-linejoin:miter;stroke-width:0.8;"/>
   </g>
   <g id="patch_97">
    <path d="M 420.68 291.976 
L 420.68 178.2 
" style="fill:none;stroke:#000000;stroke-linecap:square;stroke-linejoin:miter;stroke-width:0.8;"/>
   </g>
   <g id="patch_98">
    <path d="M 265.12 291.976 
L 420.68 291.976 
" style="fill:none;stroke:#000000;stroke-linecap:square;stroke-linejoin:miter;stroke-width:0.8;"/>
   </g>
   <g id="patch_99">
    <path d="M 265.12 178.2 
L 420.68 178.2 
" style="fill:none;stroke:#000000;stroke-linecap:square;stroke-linejoin:miter;stroke-width:0.8;"/>
   </g>
   <g id="legend_8">
    <g id="patch_100">
     <path d="M 365.8025 196.3425 
L 415.08 196.3425 
Q 416.68 196.3425 416.68 194.7425 
L 416.68 183.8 
Q 416.68 182.2 415.08 182.2 
L 365.8025 182.2 
Q 364.2025 182.2 364.2025 183.8 
L 364.2025 194.7425 
Q 364.2025 196.3425 365.8025 196.3425 
z
" style="fill:#ffffff;opacity:0.8;stroke:#cccccc;stroke-linejoin:miter;"/>
    </g>
    <g id="patch_101">
     <path d="M 367.4025 191.47875 
L 383.4025 191.47875 
L 383.4025 185.87875 
L 367.4025 185.87875 
z
" style="fill:#beb8dc;"/>
    </g>
    <g id="text_68">
     <!-- Movie -->
     <g transform="translate(389.8025 191.47875)scale(0.08 -0.08)">
      <use xlink:href="#DejaVuSans-77"/>
      <use x="86.279297" xlink:href="#DejaVuSans-111"/>
      <use x="147.460938" xlink:href="#DejaVuSans-118"/>
      <use x="206.640625" xlink:href="#DejaVuSans-105"/>
      <use x="234.423828" xlink:href="#DejaVuSans-101"/>
     </g>
    </g>
   </g>
  </g>
 </g>
 <defs>
  <clipPath id="p935fe311d5">
   <rect height="113.776" width="155.56" x="40.12" y="10.8"/>
  </clipPath>
  <clipPath id="pe02be27019">
   <rect height="113.776" width="155.56" x="265.12" y="10.8"/>
  </clipPath>
  <clipPath id="pa4be3447e7">
   <rect height="113.776" width="155.56" x="40.12" y="178.2"/>
  </clipPath>
  <clipPath id="p202cd552fa">
   <rect height="113.776" width="155.56" x="265.12" y="178.2"/>
  </clipPath>
 </defs>
</svg>
